# This file uses centimeters as units for non-parametric coordinates.

mtllib CornerSupport.mtl
g default
v -0.293522 4.400000 2.399625
v 0.293522 4.400000 2.399625
v -0.293522 2.000000 -2.400375
v 0.293522 2.000000 -2.400375
v -0.293522 2.000000 -0.900375
v 0.293522 2.000000 -0.900375
v 0.706249 2.000000 -0.900375
v 0.706249 4.400000 2.399625
v 0.706249 6.000000 -0.900375
v 0.706249 6.000000 2.399625
v -0.706249 6.000000 -0.900375
v -0.706249 2.000000 -0.900375
v -0.706249 4.400000 2.399625
v -0.706249 6.000000 2.399625
v 0.386962 1.714118 -0.814787
v 0.293522 1.777786 -0.835833
v 0.293522 4.160988 2.399625
v 0.396694 4.069924 2.398874
v 0.706249 1.777786 -0.835833
v 0.612810 1.714118 -0.814787
v 0.603078 4.069924 2.398874
v 0.706249 4.160988 2.399625
v 0.293522 1.777786 -2.400375
v -0.293522 1.777786 -0.835833
v -0.386962 1.714118 -0.814787
v -0.396694 4.069924 2.398874
v -0.293522 4.160988 2.399625
v -0.606898 4.071038 2.400375
v -0.706249 4.158722 2.399625
v -0.612810 1.714118 -0.814787
v -0.706249 1.777786 -0.835833
v -0.293522 1.777786 -2.400375
v -0.293522 2.000000 -2.200376
v -0.293522 1.777786 -2.200376
v -0.386962 1.714118 -2.200375
v -0.612810 1.714118 -2.200375
v -0.706249 1.777786 -2.200376
v -0.706249 2.000000 -2.200376
v -0.706249 6.000000 -2.200376
v 0.706249 6.000000 -2.200376
v 0.706249 2.000000 -2.200376
v 0.706249 1.777786 -2.200376
v 0.612810 1.714118 -2.200375
v 0.386962 1.714118 -2.200375
v 0.293522 1.777786 -2.200376
v 0.293522 2.000000 -2.200376
v 0.386962 -0.000000 -2.200375
v 0.293522 0.100000 -2.200376
v 0.293522 0.100000 -2.400375
v 0.386962 -0.000000 -2.400375
v 0.706249 0.000001 -2.200376
v 0.612810 -0.000000 -2.200375
v 0.612810 -0.000000 -2.400375
v 0.706249 0.000001 -2.400375
v -0.293522 0.100000 -2.200376
v -0.386962 -0.000000 -2.200375
v -0.386962 -0.000000 -2.400375
v -0.293522 0.100000 -2.400375
v -0.612810 -0.000000 -2.200375
v -0.706249 0.000001 -2.200376
v -0.706249 0.000001 -2.400375
v -0.612810 -0.000000 -2.400375
v -0.952992 2.000000 -2.400375
v -0.952992 2.000000 -2.300375
v -0.952992 6.000000 -2.300375
v -0.952992 6.000000 -2.400375
v -0.952992 1.777786 -2.300375
v -0.952992 1.777786 -2.400375
v -0.952992 0.100000 -2.400375
v -0.952992 0.100000 -2.300375
v 0.952992 6.000000 -2.300375
v 0.952992 2.000000 -2.300375
v 0.952992 2.000000 -2.400375
v 0.952992 6.000000 -2.400375
v 0.952992 1.777786 -2.300375
v 0.952992 1.777786 -2.400375
v 0.952992 0.100000 -2.300375
v 0.952992 0.100000 -2.400375
v 0.855571 6.000000 -2.200376
v 0.855571 0.000001 -2.400375
v 0.855571 0.000001 -2.200376
v 0.855571 1.777786 -2.200376
v 0.855571 2.000000 -2.200376
v -0.855571 6.000000 -2.200376
v -0.855571 2.000000 -2.200376
v -0.855571 1.777786 -2.200376
v -0.855571 0.000001 -2.200376
v -0.855571 0.000001 -2.400375
v -0.293522 4.400000 2.599625
v 0.293522 4.400000 2.599625
v 0.293522 6.000000 2.599625
v -0.293522 6.000000 2.599625
v 0.706249 4.400000 2.599625
v 0.706249 6.000000 2.599625
v -0.706249 6.000000 2.599625
v -0.706249 4.400000 2.599625
v 0.396694 4.069924 2.598874
v 0.293522 4.160988 2.599625
v 0.603078 4.069924 2.598874
v 0.706249 4.160988 2.599625
v -0.293522 4.160988 2.599625
v -0.396694 4.069924 2.598874
v -0.706249 4.158722 2.599625
v -0.606898 4.071038 2.600375
vt 0.265024 0.219684
vt 0.203327 0.218117
vt 0.203305 0.047613
vt 0.268777 0.047674
vt 0.813919 0.515992
vt 0.514683 0.755958
vt 0.551728 0.615952
vt 0.951703 0.815812
vt 0.138472 0.225013
vt 0.143307 0.747308
vt 0.155582 0.327322
vt 0.523003 0.361413
vt 0.845549 0.012439
vt 0.851263 0.432154
vt 0.329511 0.226447
vt 0.335931 0.051960
vt 0.259571 0.987242
vt 0.259652 0.976504
vt 0.689058 0.979369
vt 0.688985 0.990105
vt 0.257567 0.878078
vt 0.354187 0.757045
vt 0.375587 0.756901
vt 0.376012 0.819713
vt 0.312939 0.927840
vt 0.742278 0.928225
vt 0.742266 0.938958
vt 0.312930 0.938573
vt 0.159568 0.220659
vt 0.157446 0.048418
vt 0.314370 0.050504
vt 0.308660 0.221874
vt 0.955494 0.865217
vt 0.946556 0.854986
vt 0.947072 0.833549
vt 0.974106 0.860589
vt 0.169187 0.812037
vt 0.164033 0.801658
vt 0.188943 0.274436
vt 0.976851 0.752826
vt 0.192401 0.253816
vt 0.172553 0.251406
vt 0.164293 0.242618
vt 0.955133 0.898326
vt 0.955652 0.888679
vt 0.977662 0.889667
vt 0.976450 0.902176
vt 0.154472 0.780388
vt 0.150164 0.769417
vt 0.149535 0.254915
vt 0.163769 0.267842
vt 0.054782 0.905048
vt 0.045968 0.915301
vt 0.027066 0.911866
vt 0.033091 0.896799
vt 0.830842 0.486504
vt 0.825704 0.496852
vt 0.987096 0.826611
vt 0.275025 0.255174
vt 0.264222 0.245118
vt 0.303537 0.245367
vt 0.295107 0.253255
vt 0.305388 0.270546
vt 0.319132 0.256829
vt 0.844533 0.454296
vt 0.840266 0.465264
vt 0.046101 0.938767
vt 0.046604 0.948426
vt 0.026789 0.952796
vt 0.024407 0.940594
vt 0.766688 0.852409
vt 0.767200 0.830928
vt 0.766137 0.928280
vt 0.766135 0.939013
vt 0.234536 0.900452
vt 0.233728 0.878970
vt 0.235883 0.976550
vt 0.235862 0.987286
vt 0.228090 0.910688
vt 0.228888 0.935219
vt 0.235856 0.945255
vt 0.259826 0.945474
vt 0.987294 0.018806
vt 0.742304 0.897209
vt 0.312966 0.896828
vt 0.766165 0.897121
vt 0.773047 0.887026
vt 0.773276 0.862562
vt 0.947113 0.928308
vt 0.956782 0.934363
vt 0.055282 0.988942
vt 0.055306 0.978214
vt 0.689161 0.964381
vt 0.259743 0.961508
vt 0.235824 0.961558
vt 0.048638 0.963664
vt 0.032749 0.971374
vt 0.742294 0.913238
vt 0.312952 0.912855
vt 0.766128 0.913298
vt 0.953962 0.913682
vt 0.968978 0.921303
vt 0.203353 0.244158
vt 0.977277 0.815638
vt 0.045210 0.873799
vt 0.743356 0.830364
vt 0.258377 0.899542
vt 0.515108 0.818770
vt 0.180971 0.831264
vt 0.354613 0.819858
vt 0.951278 0.752999
vt 0.444989 0.296766
vt 0.487941 0.213661
vt 0.490645 0.240575
vt 0.488917 0.255391
vt 0.478106 0.041082
vt 0.518344 0.595186
vt 0.277891 0.276625
vt 0.509333 0.532986
vt 0.506454 0.559485
vt 0.508021 0.574828
vt 0.135559 0.049440
vt 0.467228 0.285710
vt 0.478400 0.276224
vt 0.986520 0.741721
vt 0.529495 0.604733
vt 0.045274 0.984291
vt 0.053967 0.883623
vt 0.947113 0.939042
vt 0.967141 0.846816
vt 0.036175 0.851268
vt 0.742843 0.851830
vt 0.031461 0.839229
vt 0.022911 0.814068
vt 0.018923 0.801158
vt 0.011881 0.775356
vt 0.008160 0.331615
vt 0.986959 0.460541
vt 0.689270 0.948350
vt 0.979292 0.486295
vt 0.975080 0.499195
vt 0.966197 0.524332
vt 0.961368 0.536362
vt 0.952204 0.558872
vn 0.000000 0.000000 1.000000
vn 0.000000 0.000000 1.000000
vn 0.000000 0.000000 1.000000
vn 0.000000 0.000000 1.000000
vn 0.000000 -0.808736 0.588172
vn 0.000000 -0.808736 0.588172
vn 0.000000 -0.808736 0.588172
vn 0.000000 -0.808736 0.588172
vn 1.000000 0.000000 0.000000
vn 1.000000 0.000000 0.000000
vn 1.000000 0.000000 0.000000
vn 1.000000 0.000000 0.000000
vn -1.000000 0.000000 0.000000
vn -1.000000 0.000000 0.000000
vn -1.000000 0.000000 0.000000
vn -1.000000 0.000000 0.000000
vn -1.000000 0.000000 0.000000
vn -1.000000 0.000000 0.000000
vn -1.000000 0.000000 0.000000
vn -1.000000 0.000000 0.000000
vn 0.000000 -1.000000 0.000000
vn 0.000000 -1.000000 0.000000
vn 0.000000 -1.000000 0.000000
vn 0.000000 -1.000000 0.000000
vn 1.000000 0.000000 0.000000
vn 1.000000 0.000000 0.000000
vn 1.000000 0.000000 0.000000
vn 1.000000 0.000000 0.000000
vn 0.000000 0.000000 1.000000
vn 0.000000 0.000000 1.000000
vn 0.000000 0.000000 1.000000
vn 0.000000 0.000000 1.000000
vn 0.000000 0.000000 1.000000
vn 0.000000 0.000000 1.000000
vn 0.000000 0.000000 1.000000
vn 0.000000 0.000000 1.000000
vn -0.730670 -0.682731 0.000000
vn -0.730670 -0.682730 0.000000
vn -0.730670 -0.682731 0.000000
vn -0.730670 -0.682731 0.000000
vn -0.570696 -0.661305 0.486808
vn -0.570696 -0.661305 0.486808
vn -0.570696 -0.661305 0.486808
vn -0.570696 -0.661305 0.486808
vn 0.000000 -0.008240 0.999966
vn 0.000000 -0.008240 0.999966
vn 0.000000 -0.008240 0.999966
vn 0.000000 -0.008240 0.999966
vn 0.000008 -1.000000 0.000000
vn 0.000008 -1.000000 0.000000
vn 0.000008 -1.000000 0.000000
vn 0.000008 -1.000000 0.000000
vn 0.570696 -0.661305 0.486808
vn 0.570696 -0.661305 0.486808
vn 0.570696 -0.661305 0.486808
vn 0.570696 -0.661305 0.486808
vn 0.730670 -0.682730 0.000000
vn 0.730670 -0.682731 0.000000
vn 0.730670 -0.682731 0.000000
vn 0.730670 -0.682731 0.000000
vn 0.570696 -0.661305 0.486808
vn 0.570696 -0.661305 0.486808
vn 0.570696 -0.661305 0.486808
vn 0.570696 -0.661305 0.486808
vn 0.002409 -0.000051 0.999997
vn 0.002409 -0.000051 0.999997
vn 0.002409 -0.000051 0.999997
vn 0.002409 -0.000051 0.999997
vn -0.573168 -0.660187 0.485420
vn -0.573168 -0.660187 0.485420
vn -0.573168 -0.660187 0.485420
vn -0.573168 -0.660187 0.485420
vn -0.000008 -1.000000 0.000000
vn -0.000008 -1.000000 0.000000
vn -0.000008 -1.000000 0.000000
vn -0.000008 -1.000000 0.000000
vn 0.000000 -0.806510 0.591220
vn 0.000000 -0.806510 0.591220
vn 0.000000 -0.806510 0.591220
vn 0.000000 -0.806510 0.591220
vn 0.000000 -1.000000 0.000000
vn 0.000000 -1.000000 0.000000
vn 0.000000 -1.000000 0.000000
vn 0.000000 -1.000000 0.000000
vn -0.000025 -0.806509 0.591221
vn -0.000025 -0.806509 0.591221
vn -0.000025 -0.806509 0.591221
vn -0.000025 -0.806509 0.591221
vn 0.000000 -1.000000 0.000000
vn 0.000000 -1.000000 0.000000
vn 0.000000 -1.000000 0.000000
vn 0.000000 -1.000000 0.000000
vn -1.000000 0.000000 0.000000
vn -1.000000 0.000000 0.000000
vn -1.000000 0.000000 0.000000
vn -1.000000 0.000000 0.000000
vn 1.000000 -0.000000 0.000000
vn 1.000000 -0.000000 0.000000
vn 1.000000 -0.000000 0.000000
vn 1.000000 -0.000000 0.000000
vn 0.000000 0.000000 1.000000
vn 0.000000 0.000000 1.000000
vn 0.000000 0.000000 1.000000
vn 0.000000 0.000000 1.000000
vn -1.000000 0.000000 0.000000
vn -1.000000 0.000000 0.000000
vn -1.000000 0.000000 0.000000
vn -1.000000 0.000000 0.000000
vn 1.000000 0.000000 0.000000
vn 1.000000 0.000000 0.000000
vn 1.000000 0.000000 0.000000
vn 1.000000 0.000000 0.000000
vn 1.000000 0.000000 -0.000000
vn 1.000000 0.000000 -0.000000
vn 1.000000 0.000000 -0.000000
vn 1.000000 0.000000 -0.000000
vn 0.000000 0.000000 1.000000
vn 0.000000 0.000000 1.000000
vn 0.000000 0.000000 1.000000
vn 0.000000 0.000000 1.000000
vn -1.000000 0.000000 0.000000
vn -1.000000 0.000000 0.000000
vn -1.000000 0.000000 0.000000
vn -1.000000 0.000000 0.000000
vn 1.000000 0.000000 0.000000
vn 1.000000 0.000000 0.000000
vn 1.000000 0.000000 0.000000
vn 1.000000 0.000000 0.000000
vn -1.000000 0.000000 0.000000
vn -1.000000 0.000000 0.000000
vn -1.000000 0.000000 0.000000
vn -1.000000 0.000000 0.000000
vn 1.000000 0.000000 0.000000
vn 1.000000 0.000000 0.000000
vn 1.000000 0.000000 0.000000
vn 1.000000 0.000000 0.000000
vn 0.563090 -0.826396 0.000000
vn 0.563090 -0.826396 0.000000
vn 0.563090 -0.826396 0.000000
vn 0.563090 -0.826396 0.000000
vn 0.000000 -1.000000 0.000000
vn 0.000000 -1.000000 0.000000
vn 0.000000 -1.000000 0.000000
vn 0.000000 -1.000000 0.000000
vn -0.563090 -0.826396 0.000000
vn -0.563090 -0.826396 0.000000
vn -0.563090 -0.826396 0.000000
vn -0.563090 -0.826396 0.000000
vn -1.000000 0.000000 0.000000
vn -1.000000 0.000000 0.000000
vn -1.000000 0.000000 0.000000
vn -1.000000 0.000000 0.000000
vn -1.000000 0.000000 0.000000
vn -1.000000 0.000000 0.000000
vn -1.000000 0.000000 0.000000
vn -1.000000 0.000000 0.000000
vn 1.000000 0.000000 0.000000
vn 1.000000 0.000000 0.000000
vn 1.000000 0.000000 0.000000
vn 1.000000 0.000000 0.000000
vn 1.000000 0.000000 0.000000
vn 1.000000 0.000000 0.000000
vn 1.000000 0.000000 0.000000
vn 1.000000 0.000000 0.000000
vn 0.563090 -0.826396 0.000000
vn 0.563090 -0.826396 0.000000
vn 0.563090 -0.826396 0.000000
vn 0.563090 -0.826396 0.000000
vn 0.000000 -1.000000 0.000000
vn 0.000000 -1.000000 0.000000
vn 0.000000 -1.000000 0.000000
vn 0.000000 -1.000000 0.000000
vn -0.563090 -0.826396 0.000000
vn -0.563090 -0.826396 0.000000
vn -0.563090 -0.826396 0.000000
vn -0.563090 -0.826396 0.000000
vn -1.000000 0.000000 0.000000
vn -1.000000 0.000000 0.000000
vn -1.000000 0.000000 0.000000
vn -1.000000 0.000000 0.000000
vn 0.000000 -1.000000 0.000000
vn 0.000000 -1.000000 0.000000
vn 0.000000 -1.000000 0.000000
vn 0.000000 -1.000000 0.000000
vn -0.000004 0.000000 1.000000
vn -0.000004 0.000000 1.000000
vn -0.000004 0.000000 1.000000
vn -0.000004 0.000000 1.000000
vn -1.000000 0.000000 0.000000
vn -1.000000 0.000000 0.000000
vn -1.000000 0.000000 0.000000
vn -1.000000 0.000000 0.000000
vn 0.000007 0.000000 1.000000
vn 0.000007 0.000000 1.000000
vn 0.000007 0.000000 1.000000
vn 0.000007 0.000000 1.000000
vn 1.000000 0.000000 0.000000
vn 1.000000 0.000000 0.000000
vn 1.000000 0.000000 0.000000
vn 1.000000 0.000000 0.000000
vn 0.000000 0.000000 1.000000
vn 0.000000 0.000000 1.000000
vn 0.000000 0.000000 1.000000
vn 0.000000 0.000000 1.000000
vn 0.000004 0.000000 1.000000
vn 0.000004 0.000000 1.000000
vn 0.000004 0.000000 1.000000
vn 0.000004 0.000000 1.000000
vn 1.000000 0.000000 0.000000
vn 1.000000 0.000000 0.000000
vn 1.000000 0.000000 0.000000
vn 1.000000 0.000000 0.000000
vn -0.000007 0.000000 1.000000
vn -0.000007 0.000000 1.000000
vn -0.000007 0.000000 1.000000
vn -0.000007 0.000000 1.000000
vn -1.000000 0.000000 0.000000
vn -1.000000 0.000000 0.000000
vn -1.000000 0.000000 0.000000
vn -1.000000 0.000000 0.000000
vn 0.000000 0.000000 1.000000
vn 0.000000 0.000000 1.000000
vn 0.000000 0.000000 1.000000
vn 0.000000 0.000000 1.000000
vn 0.000000 0.000000 1.000000
vn 0.000000 0.000000 1.000000
vn 0.000000 0.000000 1.000000
vn 0.000000 0.000000 1.000000
vn 0.000000 0.000000 1.000000
vn 0.000000 0.000000 1.000000
vn 0.000000 0.000000 1.000000
vn 0.000000 0.000000 1.000000
vn 0.000000 -1.000000 0.000000
vn 0.000000 -1.000000 0.000000
vn 0.000000 -1.000000 0.000000
vn 0.000000 -1.000000 0.000000
vn 0.000000 0.000000 1.000000
vn 0.000000 0.000000 1.000000
vn 0.000000 0.000000 1.000000
vn 0.000000 0.000000 1.000000
vn 0.000000 0.000000 1.000000
vn 0.000000 0.000000 1.000000
vn 0.000000 0.000000 1.000000
vn 0.000000 0.000000 1.000000
vn 0.000000 0.000000 1.000000
vn 0.000000 0.000000 1.000000
vn 0.000000 0.000000 1.000000
vn 0.000000 0.000000 1.000000
vn 0.000000 0.000000 1.000000
vn 0.000000 0.000000 1.000000
vn 0.000000 0.000000 1.000000
vn 0.000000 0.000000 1.000000
vn 0.000000 -1.000000 0.000000
vn 0.000000 -1.000000 0.000000
vn 0.000000 -1.000000 0.000000
vn 0.000000 -1.000000 0.000000
vn 0.716280 -0.697813 0.000000
vn 0.716280 -0.697813 0.000000
vn 0.716280 -0.697813 0.000000
vn 0.716280 -0.697813 0.000000
vn 0.716281 0.000000 0.697812
vn 0.716281 0.000000 0.697812
vn 0.716281 0.000000 0.697812
vn 0.716281 0.000000 0.697812
vn 0.716279 0.000000 0.697814
vn 0.716279 0.000000 0.697814
vn 0.716279 0.000000 0.697814
vn 0.716279 0.000000 0.697814
vn 0.716281 0.000000 0.697812
vn 0.716281 0.000000 0.697812
vn 0.716281 0.000000 0.697812
vn 0.716281 0.000000 0.697812
vn -0.716281 0.000000 0.697812
vn -0.716281 0.000000 0.697812
vn -0.716281 0.000000 0.697812
vn -0.716281 0.000000 0.697812
vn -0.716279 0.000000 0.697814
vn -0.716279 0.000000 0.697814
vn -0.716279 0.000000 0.697814
vn -0.716279 0.000000 0.697814
vn -0.716281 0.000000 0.697812
vn -0.716281 0.000000 0.697812
vn -0.716281 0.000000 0.697812
vn -0.716281 0.000000 0.697812
vn -0.716280 -0.697813 0.000000
vn -0.716280 -0.697813 0.000000
vn -0.716280 -0.697813 0.000000
vn -0.716280 -0.697813 0.000000
vn 1.000000 0.000000 0.000000
vn 1.000000 0.000000 0.000000
vn 1.000000 0.000000 0.000000
vn 1.000000 0.000000 0.000000
vn -1.000000 0.000000 0.000000
vn -1.000000 0.000000 0.000000
vn -1.000000 0.000000 0.000000
vn -1.000000 0.000000 0.000000
vn 0.000000 -1.000000 0.000000
vn 0.000000 -1.000000 0.000000
vn 0.000000 -1.000000 0.000000
vn 0.000000 -1.000000 0.000000
vn 0.661745 -0.749729 0.000000
vn 0.661745 -0.749729 0.000000
vn 0.661745 -0.749729 0.000000
vn 0.661745 -0.749729 0.000000
vn -0.661714 -0.749757 0.000000
vn -0.661714 -0.749756 0.000000
vn -0.661714 -0.749757 0.000000
vn -0.661714 -0.749756 0.000000
vn -0.005297 -0.999986 0.000000
vn -0.005297 -0.999986 0.000000
vn -0.005297 -0.999986 0.000000
vn -0.005297 -0.999986 0.000000
vn 1.000000 0.000000 0.000000
vn 1.000000 0.000000 0.000000
vn 1.000000 0.000000 0.000000
vn 1.000000 0.000000 0.000000
vn -1.000000 0.000000 0.000000
vn -1.000000 0.000000 0.000000
vn -1.000000 0.000000 0.000000
vn -1.000000 0.000000 0.000000
vn 0.000000 0.008240 -0.999966
vn 0.000000 0.008240 -0.999966
vn 0.000000 0.008240 -0.999966
vn 0.000000 0.008240 -0.999966
vn 0.000000 -1.000000 0.000000
vn 0.000000 -1.000000 0.000000
vn 0.000000 -1.000000 0.000000
vn 0.000000 -1.000000 0.000000
vn 0.000000 -0.008240 0.999966
vn 0.000000 -0.008240 0.999966
vn 0.000000 -0.008240 0.999966
vn 0.000000 -0.008240 0.999966
vn 0.000000 0.000000 1.000000
vn 0.000000 0.000000 1.000000
vn 0.000000 0.000000 1.000000
vn 0.000000 0.000000 1.000000
vn 0.000000 0.000000 -1.000000
vn 0.000000 0.000000 -1.000000
vn 0.000000 0.000000 -1.000000
vn 0.000000 0.000000 -1.000000
s off
g pCube1
usemtl initialShadingGroup
f 89/1/1 90/2/2 91/3/3 92/4/4
f 5/108/5 6/6/6 2/111/7 1/8/8
f 8/119/9 7/10/10 9/11/11 10/12/12
f 11/13/13 12/14/14 13/113/15 14/116/16
f 63/17/17 64/18/18 65/19/19 66/20/20
f 3/110/21 4/22/22 46/23/23 33/24/24
f 71/25/25 72/26/26 73/27/27 74/28/28
f 91/3/29 90/2/30 93/29/31 94/30/32
f 89/1/33 92/4/34 95/31/35 96/32/36
f 47/33/37 48/34/38 49/130/39 50/36/40
f 16/37/41 15/38/42 18/117/43 17/126/44
f 98/103/45 97/41/46 99/42/47 100/43/48
f 51/44/49 52/45/50 53/46/51 54/47/52
f 20/48/53 19/49/54 22/120/55 21/121/56
f 55/52/57 56/53/58 57/54/59 58/55/60
f 25/56/61 24/57/62 27/123/63 26/124/64
f 102/59/65 101/60/66 103/61/67 104/62/68
f 28/115/69 29/114/70 31/65/71 30/66/72
f 59/67/73 60/68/74 61/69/75 62/70/76
f 18/117/77 15/38/78 20/48/79 21/121/80
f 52/45/81 47/33/82 50/36/83 53/46/84
f 25/56/85 26/124/86 28/115/87 30/66/88
f 57/54/89 56/53/90 59/67/91 62/70/92
f 2/7/93 6/109/94 16/37/95 17/126/96
f 7/10/97 8/119/98 22/120/99 19/49/100
f 93/29/101 90/2/102 98/103/103 100/43/104
f 45/71/105 46/132/106 4/106/107 23/72/108
f 73/27/109 72/26/110 75/73/111 76/74/112
f 5/5/113 1/112/114 27/123/115 24/57/116
f 89/1/117 96/32/118 103/61/119 101/60/120
f 13/113/121 12/14/122 31/65/123 29/114/124
f 3/21/125 33/107/126 34/75/127 32/76/128
f 67/77/129 64/18/130 63/17/131 68/78/132
f 34/143/133 33/144/134 5/5/135 24/57/136
f 24/57/137 25/56/138 35/142/139 34/143/140
f 36/141/141 35/142/142 25/56/143 30/66/144
f 30/66/145 31/65/146 37/140/147 36/141/148
f 12/14/149 38/138/150 37/140/151 31/65/152
f 39/83/153 38/138/154 12/14/155 11/13/156
f 9/11/157 7/10/158 41/136/159 40/137/160
f 42/135/161 41/136/162 7/10/163 19/49/164
f 19/49/165 20/48/166 43/134/167 42/135/168
f 15/38/169 44/133/170 43/134/171 20/48/172
f 15/38/173 16/37/174 45/131/175 44/133/176
f 6/109/177 46/105/178 45/131/179 16/37/180
f 33/24/181 46/23/182 6/6/183 5/108/184
f 44/88/185 45/71/186 48/34/187 47/33/188
f 45/71/189 23/72/190 49/35/191 48/34/192
f 42/86/193 43/87/194 52/45/195 51/44/196
f 76/74/197 75/73/198 77/89/199 78/129/200
f 43/87/201 44/88/202 47/33/203 52/45/204
f 34/75/205 35/79/206 56/53/207 55/52/208
f 32/76/209 34/75/210 55/52/211 58/128/212
f 36/80/213 37/81/214 60/68/215 59/67/216
f 67/77/217 68/78/218 69/91/219 70/92/220
f 35/79/221 36/80/222 59/67/223 56/53/224
f 38/82/225 39/139/226 84/93/227 85/94/228
f 37/81/229 38/82/230 85/94/231 86/95/232
f 61/69/233 60/68/234 87/96/235 88/97/236
f 60/68/237 37/81/238 86/95/239 87/96/240
f 40/85/241 41/84/242 83/98/243 79/99/244
f 41/84/245 42/86/246 82/100/247 83/98/248
f 42/86/249 51/44/250 81/101/251 82/100/252
f 51/44/253 54/47/254 80/102/255 81/101/256
f 81/101/257 80/102/258 78/90/259 77/89/260
f 82/100/261 81/101/262 77/89/263 75/73/264
f 83/98/265 82/100/266 75/73/267 72/26/268
f 79/99/269 83/98/270 72/26/271 71/25/272
f 85/94/273 84/93/274 65/19/275 64/18/276
f 86/95/277 85/94/278 64/18/279 67/77/280
f 87/96/281 86/95/282 67/77/283 70/92/284
f 88/97/285 87/96/286 70/92/287 69/127/288
f 8/9/289 10/122/290 94/30/291 93/29/292
f 14/16/293 13/15/294 96/32/295 95/31/296
f 18/39/297 21/51/298 99/42/299 97/41/300
f 21/51/301 22/50/302 100/43/303 99/42/304
f 29/64/305 28/63/306 104/62/307 103/61/308
f 28/63/309 26/118/310 102/59/311 104/62/312
f 22/50/313 8/9/314 93/29/315 100/43/316
f 13/15/317 29/64/318 103/61/319 96/32/320
f 17/40/321 18/125/322 26/58/323 27/104/324
f 18/39/325 97/41/326 102/59/327 26/118/328
f 97/41/329 98/103/330 101/60/331 102/59/332
f 90/2/333 89/1/334 101/60/335 98/103/336
f 1/8/337 2/111/338 17/40/339 27/104/340
