# This file uses centimeters as units for non-parametric coordinates.

mtllib MainPlatform.mtl
g default
v -4.000000 0.000000 4.000000
v 4.000000 0.000000 4.000000
v -4.000000 0.000000 -4.000000
v 4.000000 0.000000 -4.000000
v -4.000000 0.400000 4.000000
v 4.000000 0.400000 4.000000
v 4.000000 0.400000 -4.000000
v -4.000000 0.400000 -4.000000
vt 0.000000 0.000000
vt 1.000000 -0.000000
vt 1.000000 1.000000
vt -0.000000 1.000000
vt 0.000000 0.000000
vt -0.000000 1.000000
vt 1.000000 1.000000
vt 1.000000 -0.000000
vt 0.000000 0.450214
vt 1.000000 0.450214
vt 1.000000 0.500214
vt 0.000000 0.500214
vt 1.000000 0.450214
vt 0.000000 0.450214
vt 0.000000 0.500214
vt 1.000000 0.500214
vt 0.000000 0.450214
vt 1.000000 0.450214
vt 1.000000 0.500214
vt 0.000000 0.500214
vt 1.000000 0.450214
vt -0.000000 0.450214
vt -0.000000 0.500214
vt 1.000000 0.500214
vn 0.000000 1.000000 0.000000
vn 0.000000 1.000000 0.000000
vn 0.000000 1.000000 0.000000
vn 0.000000 1.000000 0.000000
vn 0.000000 -1.000000 0.000000
vn 0.000000 -1.000000 0.000000
vn 0.000000 -1.000000 0.000000
vn 0.000000 -1.000000 0.000000
vn 0.000000 0.000000 1.000000
vn 0.000000 0.000000 1.000000
vn 0.000000 0.000000 1.000000
vn 0.000000 0.000000 1.000000
vn 1.000000 0.000000 0.000000
vn 1.000000 0.000000 0.000000
vn 1.000000 0.000000 0.000000
vn 1.000000 0.000000 0.000000
vn 0.000000 0.000000 -1.000000
vn 0.000000 0.000000 -1.000000
vn 0.000000 0.000000 -1.000000
vn 0.000000 0.000000 -1.000000
vn -1.000000 0.000000 0.000000
vn -1.000000 0.000000 0.000000
vn -1.000000 0.000000 0.000000
vn -1.000000 0.000000 0.000000
s off
g pPlane1
usemtl initialShadingGroup
f 5/5/1 6/8/2 7/7/3 8/6/4
f 1/1/5 3/4/6 4/3/7 2/2/8
f 1/9/9 2/10/10 6/11/11 5/12/12
f 2/17/13 4/18/14 7/19/15 6/20/16
f 4/13/17 3/14/18 8/15/19 7/16/20
f 3/21/21 1/22/22 5/23/23 8/24/24
