# This file uses centimeters as units for non-parametric coordinates.

mtllib MainPlatform.mtl
g default
v -4.000000 0.000000 4.000000
v 4.000000 0.000000 4.000000
v -4.000000 0.000000 -4.000000
v 4.000000 0.000000 -4.000000
v -4.000000 0.400000 4.000000
v 4.000000 0.400000 4.000000
v 4.000000 0.400000 -4.000000
v -4.000000 0.400000 -4.000000
v -3.950000 0.000000 4.000000
v -3.950000 0.400000 4.000000
v -3.950000 0.400000 -4.000000
v -3.950000 0.000000 -4.000000
v -4.000000 0.000000 -3.950002
v -3.950000 0.000000 -3.949998
v 4.000000 0.000000 -3.950002
v 4.000000 0.400000 -3.950002
v -3.950000 0.400000 -3.950002
v -4.000000 0.400000 -3.950002
v 3.949999 0.000000 4.000000
v 3.949999 0.400000 4.000000
v 3.950001 0.400000 -3.950002
v 3.949999 0.400000 -4.000000
v 3.949999 0.000000 -4.000000
v 3.949999 0.000000 -3.950002
v -4.000000 0.000000 3.950002
v -3.950000 0.000000 3.949998
v 3.949999 0.000000 3.949998
v 4.000000 0.000000 3.950002
v 4.000000 0.400000 3.950002
v 3.949999 0.400000 3.950002
v -3.950000 0.400000 3.950002
v -4.000000 0.400000 3.950002
v -3.950000 -0.023956 3.949998
v 3.949999 -0.023956 3.949998
v -3.950000 -0.023956 -3.949998
v 3.949999 -0.023956 -3.950002
v 3.949999 0.423956 3.950002
v -3.950000 0.423956 3.950002
v 3.950001 0.423956 -3.950002
v -3.950000 0.423956 -3.950002
vt 0.951625 0.985096
vt 0.950138 0.081887
vt 0.049293 0.083617
vt 0.048375 0.984504
vt 0.048888 0.082206
vt 0.049117 0.984350
vt 0.951156 0.984725
vt 0.950825 0.082819
vt 0.000009 0.015801
vt 0.999988 0.015724
vt 0.999991 0.068868
vt 0.000012 0.068945
vt 0.999990 0.068894
vt 0.000011 0.068919
vt 0.000010 0.015775
vt 0.999989 0.015750
vt 0.000000 0.015992
vt 0.999978 0.015532
vt 1.000000 0.068677
vt 0.000022 0.069137
vt 0.999989 0.068907
vt 0.000011 0.068906
vt 0.000011 0.015762
vt 0.999989 0.015763
vt 0.006259 0.015800
vt 0.951625 0.979469
vt 0.054505 0.082216
vt 0.006262 0.068945
vt 0.006260 0.015774
vt 0.054631 0.984335
vt 0.048400 0.978892
vt 0.006261 0.068919
vt 0.054092 0.984622
vt 0.993739 0.068907
vt 0.054019 0.979003
vt 0.993729 0.015535
vt 0.054771 0.083678
vt 0.951218 0.979094
vt 0.993750 0.068680
vt 0.054769 0.978718
vt 0.993739 0.015763
vt 0.049152 0.978866
vt 0.993738 0.015724
vt 0.950167 0.087478
vt 0.945307 0.082808
vt 0.993742 0.068869
vt 0.945598 0.979116
vt 0.993739 0.015750
vt 0.945563 0.984735
vt 0.049288 0.089133
vt 0.993740 0.068895
vt 0.054904 0.089296
vt 0.946086 0.985026
vt 0.006260 0.068906
vt 0.946006 0.979408
vt 0.944547 0.087466
vt 0.006250 0.015989
vt 0.944513 0.081846
vt 0.950763 0.088299
vt 0.006271 0.069134
vt 0.945145 0.088424
vt 0.054401 0.087835
vt 0.006260 0.015762
vt 0.048782 0.087923
vt 0.942798 0.089340
vt 0.944129 0.977653
vt 0.055774 0.977135
vt 0.056775 0.091058
vt 0.056271 0.089588
vt 0.943382 0.090293
vt 0.943728 0.977362
vt 0.056526 0.976844
vn 0.000000 1.000000 0.000000
vn 0.000000 1.000000 0.000000
vn 0.000000 1.000000 0.000000
vn 0.000000 1.000000 0.000000
vn 0.000000 -1.000000 0.000000
vn 0.000000 -1.000000 0.000000
vn 0.000000 -1.000000 0.000000
vn 0.000000 -1.000000 0.000000
vn 0.000000 0.000000 1.000000
vn 0.000000 0.000000 1.000000
vn 0.000000 0.000000 1.000000
vn 0.000000 0.000000 1.000000
vn 1.000000 0.000000 0.000008
vn 1.000000 0.000000 0.000000
vn 1.000000 0.000000 0.000000
vn 1.000000 0.000000 0.000008
vn 0.000000 0.000000 -1.000000
vn 0.000000 0.000000 -1.000000
vn 0.000000 0.000000 -1.000000
vn 0.000000 0.000000 -1.000000
vn -1.000000 0.000000 0.000000
vn -1.000000 0.000000 0.000000
vn -1.000000 0.000000 0.000008
vn -1.000000 0.000000 0.000008
vn 0.000000 0.000000 1.000000
vn 0.000000 0.000000 1.000000
vn 0.000000 1.000000 0.000000
vn 0.000000 1.000000 0.000000
vn 0.000000 0.000000 -1.000000
vn 0.000000 0.000000 -1.000000
vn 0.000000 -1.000000 0.000000
vn 0.000000 -1.000000 0.000000
vn 0.000000 -1.000000 0.000000
vn 0.000000 -1.000000 0.000000
vn 0.000000 -1.000000 0.000000
vn 0.000000 -1.000000 0.000000
vn 0.000000 -1.000000 0.000000
vn 0.000000 -1.000000 0.000000
vn 1.000000 0.000000 -0.000000
vn 1.000000 0.000000 -0.000000
vn 1.000000 0.000000 0.000000
vn 1.000000 0.000000 0.000000
vn 0.000000 1.000000 0.000000
vn 0.000000 1.000000 0.000000
vn 0.000000 1.000000 0.000000
vn 0.000000 1.000000 0.000000
vn 0.000000 1.000000 0.000000
vn 0.000000 1.000000 0.000000
vn -1.000000 0.000000 0.000000
vn -1.000000 0.000000 -0.000000
vn -1.000000 0.000000 -0.000000
vn -1.000000 0.000000 0.000000
vn 0.000000 0.000000 1.000000
vn 0.000000 0.000000 1.000000
vn 0.000000 1.000000 0.000000
vn 0.000000 1.000000 0.000000
vn 0.000000 1.000000 0.000000
vn 0.000000 1.000000 0.000000
vn 0.000000 0.000000 -1.000000
vn 0.000000 0.000000 -1.000000
vn 0.000000 -1.000000 0.000000
vn 0.000000 -1.000000 0.000000
vn 0.000000 -1.000000 0.000000
vn 0.000000 -1.000000 0.000000
vn 0.000000 -1.000000 0.000000
vn 0.000000 -1.000000 0.000000
vn 0.000000 -1.000000 0.000000
vn 0.000000 -1.000000 0.000000
vn 0.000000 1.000000 0.000000
vn 0.000000 1.000000 0.000000
vn 0.000000 1.000000 0.000000
vn 0.000000 1.000000 0.000000
vn 0.000000 0.000000 1.000000
vn 0.000000 0.000000 1.000000
vn 0.000000 0.000000 1.000000
vn 0.000000 0.000000 1.000000
vn -1.000000 0.000000 0.000000
vn -1.000000 0.000000 0.000000
vn -1.000000 0.000000 0.000000
vn -1.000000 0.000000 0.000000
vn -0.000000 0.000000 -1.000000
vn -0.000000 0.000000 -1.000000
vn -0.000000 0.000000 -1.000000
vn -0.000000 0.000000 -1.000000
vn 1.000000 0.000000 0.000000
vn 1.000000 0.000000 0.000000
vn 1.000000 0.000000 0.000000
vn 1.000000 0.000000 0.000000
vn 0.000000 0.000000 1.000000
vn 0.000000 0.000000 1.000000
vn 0.000000 0.000000 1.000000
vn 0.000000 0.000000 1.000000
vn 1.000000 0.000000 0.000000
vn 1.000000 0.000000 0.000000
vn 1.000000 0.000000 0.000000
vn 1.000000 0.000000 0.000000
vn 0.000000 0.000000 -1.000000
vn 0.000000 0.000000 -1.000000
vn 0.000000 0.000000 -1.000000
vn 0.000000 0.000000 -1.000000
vn -1.000000 0.000000 0.000000
vn -1.000000 0.000000 0.000000
vn -1.000000 0.000000 0.000000
vn -1.000000 0.000000 0.000000
s 1
g pPlane1
usemtl initialShadingGroup
f 5/5/1 10/27/2 31/62/3 32/64/4
s 2
f 1/1/5 25/53/6 26/55/7 9/26/8
s 3
f 1/9/9 9/25/10 10/28/11 5/12/12
s 4
f 2/17/13 28/57/14 29/60/15 6/20/16
s 5
f 11/29/17 12/32/18 3/14/19 8/15/20
s 6
f 32/63/21 25/54/22 1/22/23 5/23/24
s 3
f 10/28/11 9/25/10 19/43/25 20/46/26
s 1
f 20/45/27 30/61/28 31/62/3 10/27/2
s 5
f 22/48/29 23/51/30 12/32/18 11/29/17
s 2
f 9/26/8 26/55/7 27/56/31 19/44/32
f 14/35/33 13/33/34 3/4/35 12/31/36
f 23/50/37 24/52/38 14/35/33 12/31/36
s 4
f 16/39/39 15/36/40 4/18/41 7/19/42
s 1
f 11/30/43 17/40/44 21/47/45 22/49/46
f 18/42/47 17/40/44 11/30/43 8/6/48
s 6
f 3/21/49 13/34/50 18/41/51 8/24/52
s 3
f 20/46/26 19/43/25 2/10/53 6/11/54
s 1
f 29/59/55 30/61/28 20/45/27 6/8/56
f 22/49/46 21/47/45 16/38/57 7/7/58
s 5
f 4/13/59 23/51/30 22/48/29 7/16/60
s 2
f 15/37/61 24/52/38 23/50/37 4/3/62
f 19/44/32 27/56/31 28/58/63 2/2/64
f 26/55/7 25/53/6 13/33/34 14/35/33
s off
f 34/65/65 33/66/66 35/67/67 36/68/68
s 2
f 28/58/63 27/56/31 24/52/38 15/37/61
s 4
f 29/60/15 28/57/14 15/36/40 16/39/39
s 1
f 16/38/57 21/47/45 30/61/28 29/59/55
s off
f 38/69/69 37/70/70 39/71/71 40/72/72
s 1
f 32/64/4 31/62/3 17/40/44 18/42/47
s 6
f 18/41/51 13/34/50 25/54/22 32/63/21
s off
f 27/56/73 26/55/74 33/66/75 34/65/76
f 26/55/77 14/35/78 35/67/79 33/66/80
f 14/35/81 24/52/82 36/68/83 35/67/84
f 24/52/85 27/56/86 34/65/87 36/68/88
f 31/62/89 30/61/90 37/70/91 38/69/92
f 30/61/93 21/47/94 39/71/95 37/70/96
f 21/47/97 17/40/98 40/72/99 39/71/100
f 17/40/101 31/62/102 38/69/103 40/72/104
