# This file uses centimeters as units for non-parametric coordinates.

mtllib PlatformTrimAccent.mtl
g default
v -4.124823 -0.171597 4.124823
v -3.375177 -0.171597 4.124823
v -4.124823 0.578048 4.124823
v -3.375177 0.578048 4.124823
v -4.124823 0.578048 3.375177
v -3.375177 0.578048 3.375177
v -4.124823 -0.171597 3.375177
v -3.375177 -0.171597 3.375177
vt 0.619292 0.407644
vt 0.428901 0.502871
vt 0.524090 0.407657
vt 0.428872 0.502854
vt 0.619295 0.312469
vt 0.524074 0.502864
vt 0.524093 0.312460
vt 0.524083 0.407661
vt 0.428891 0.312450
vt 0.428882 0.407652
vt 0.619279 0.312442
vt 0.524077 0.312455
vt 0.428888 0.407670
vt 0.428875 0.312467
vt 0.619285 0.407671
vt 0.524103 0.502859
vn 0.000000 0.000000 1.000000
vn 0.000000 0.000000 1.000000
vn 0.000000 0.000000 1.000000
vn 0.000000 0.000000 1.000000
vn 0.000000 1.000000 0.000000
vn 0.000000 1.000000 0.000000
vn 0.000000 1.000000 0.000000
vn 0.000000 1.000000 0.000000
vn 0.000000 0.000000 -1.000000
vn 0.000000 0.000000 -1.000000
vn 0.000000 0.000000 -1.000000
vn 0.000000 0.000000 -1.000000
vn 0.000000 -1.000000 0.000000
vn 0.000000 -1.000000 0.000000
vn 0.000000 -1.000000 0.000000
vn 0.000000 -1.000000 0.000000
vn 1.000000 0.000000 0.000000
vn 1.000000 0.000000 0.000000
vn 1.000000 0.000000 0.000000
vn 1.000000 0.000000 0.000000
vn -1.000000 0.000000 0.000000
vn -1.000000 0.000000 0.000000
vn -1.000000 0.000000 0.000000
vn -1.000000 0.000000 0.000000
s off
g pCube13
usemtl initialShadingGroup
f 1/16/1 2/2/2 4/13/3 3/3/4
f 3/3/5 4/13/6 6/14/7 5/12/8
f 5/5/9 6/15/10 8/8/11 7/7/12
f 7/7/13 8/8/14 2/10/15 1/9/16
f 2/10/17 8/8/18 6/6/19 4/4/20
f 7/11/21 1/1/22 3/3/23 5/12/24
