# This file uses centimeters as units for non-parametric coordinates.

mtllib Trim1.mtl
g default
v 0.063684 0.610817 -4.500000
v 0.063684 0.121123 -4.500000
v 0.063684 0.121123 4.500000
v 0.063684 0.610817 4.500000
v 0.007960 0.121123 -4.500000
v 0.007960 0.121123 4.500000
v -0.063684 -0.007143 -4.429495
v 0.007960 -0.007143 -4.500000
v 0.007960 -0.007143 4.500000
v -0.063684 -0.007143 4.429495
vt 1.000000 0.847149
vt 1.000000 0.856510
vt 0.000000 0.856510
vt 0.000000 0.847149
vt 1.000000 0.944540
vt 0.000000 0.944540
vt 0.000000 0.880552
vt 1.000000 0.880552
vt 0.000000 0.873271
vt 1.000000 0.873271
vn 0.000000 -1.000000 0.000000
vn 0.000000 -1.000000 0.000000
vn 0.000000 -1.000000 0.000000
vn 0.000000 -1.000000 0.000000
vn 1.000000 0.000000 0.000000
vn 1.000000 0.000000 0.000000
vn 1.000000 0.000000 0.000000
vn 1.000000 0.000000 0.000000
vn 0.000000 -1.000000 0.000000
vn 0.000000 -1.000000 0.000000
vn 0.000000 -1.000000 0.000000
vn 0.000000 -1.000000 0.000000
vn 1.000000 0.000000 0.000000
vn 1.000000 0.000000 0.000000
vn 1.000000 0.000000 0.000000
vn 1.000000 0.000000 0.000000
s off
g pCube16
usemtl initialShadingGroup
f 7/1/1 8/2/2 9/3/3 10/4/4
f 1/5/5 4/6/6 3/7/7 2/8/8
f 6/9/9 5/10/10 2/8/11 3/7/12
f 5/10/13 6/9/14 9/3/15 8/2/16
