# This file uses centimeters as units for non-parametric coordinates.

mtllib MedPipe.mtl
g default
v 0.193772 0.193772 -3.425443
v -0.000000 0.274035 -3.425443
v -0.193772 0.193772 -3.425443
v -0.274036 0.000000 -3.425443
v -0.193772 -0.193772 -3.425443
v -0.000000 -0.274035 -3.425443
v 0.193772 -0.193772 -3.425443
v 0.274035 0.000000 -3.425443
v 0.193772 0.193772 3.425443
v -0.000000 0.274035 3.425443
v -0.193772 0.193772 3.425443
v -0.274036 0.000000 3.425443
v -0.193772 -0.193772 3.425443
v -0.000000 -0.274035 3.425443
v 0.193772 -0.193772 3.425443
v 0.274035 0.000000 3.425443
vt 0.927473 0.989826
vt 0.907769 0.989817
vt 0.908067 0.346200
vt 0.927771 0.346209
vt 0.888065 0.989807
vt 0.888363 0.346191
vt 0.868361 0.989798
vt 0.868659 0.346182
vt 0.848657 0.989789
vt 0.848955 0.346172
vt 0.828953 0.989780
vt 0.986884 0.346236
vt 0.966881 0.989844
vt 0.967180 0.346227
vt 0.947177 0.989835
vt 0.947475 0.346218
vt 0.986585 0.989853
vt 0.829251 0.346163
vn 0.707107 0.707107 0.000000
vn 0.000000 1.000000 0.000000
vn 0.000000 1.000000 0.000000
vn 0.707107 0.707107 0.000000
vn -0.707107 0.707107 0.000000
vn -0.707107 0.707107 0.000000
vn -1.000000 0.000000 0.000000
vn -1.000000 0.000000 0.000000
vn -0.707107 -0.707107 0.000000
vn -0.707107 -0.707107 0.000000
vn -0.000000 -1.000000 0.000000
vn -0.000000 -1.000000 0.000000
vn 0.707107 -0.707107 0.000000
vn 0.707107 -0.707107 0.000000
vn 1.000000 -0.000000 0.000000
vn 1.000000 -0.000000 0.000000
s 1
g pCylinder3
usemtl initialShadingGroup
f 1/1/1 2/2/2 10/3/3 9/4/4
f 2/2/2 3/5/5 11/6/6 10/3/3
f 3/5/5 4/7/7 12/8/8 11/6/6
f 4/7/7 5/9/9 13/10/10 12/8/8
f 5/9/9 6/11/11 14/18/12 13/10/10
f 6/17/11 7/13/13 15/14/14 14/12/12
f 7/13/13 8/15/15 16/16/16 15/14/14
f 8/15/15 1/1/1 9/4/4 16/16/16
