# This file uses centimeters as units for non-parametric coordinates.

mtllib SmallPipe.mtl
g default
v 0.193771 0.193772 -1.712721
v -0.000001 0.274035 -1.712721
v -0.193773 0.193772 -1.712721
v -0.274036 0.000000 -1.712721
v -0.193773 -0.193772 -1.712721
v -0.000001 -0.274035 -1.712721
v 0.193771 -0.193772 -1.712721
v 0.274034 0.000000 -1.712721
v 0.193771 0.193772 1.712721
v -0.000001 0.274035 1.712721
v -0.193773 0.193772 1.712721
v -0.274036 0.000000 1.712721
v -0.193773 -0.193772 1.712721
v -0.000001 -0.274035 1.712721
v 0.193771 -0.193772 1.712721
v 0.274034 0.000000 1.712721
vt 0.756255 0.994299
vt 0.736551 0.994295
vt 0.736618 0.672486
vt 0.756322 0.672490
vt 0.716847 0.994291
vt 0.716914 0.672482
vt 0.697143 0.994286
vt 0.697210 0.672478
vt 0.677439 0.994282
vt 0.677506 0.672474
vt 0.657735 0.994278
vt 0.815435 0.672503
vt 0.795663 0.994307
vt 0.795730 0.672499
vt 0.775959 0.994303
vt 0.776026 0.672495
vt 0.815368 0.994311
vt 0.657802 0.672470
vn 0.707107 0.707107 0.000000
vn 0.000000 1.000000 0.000000
vn 0.000000 1.000000 0.000000
vn 0.707107 0.707107 0.000000
vn -0.707107 0.707107 0.000000
vn -0.707107 0.707107 0.000000
vn -1.000000 0.000000 0.000000
vn -1.000000 0.000000 0.000000
vn -0.707107 -0.707106 0.000000
vn -0.707107 -0.707106 0.000000
vn -0.000000 -1.000000 0.000000
vn -0.000000 -1.000000 0.000000
vn 0.707107 -0.707106 0.000000
vn 0.707107 -0.707106 0.000000
vn 1.000000 0.000000 0.000000
vn 1.000000 0.000000 0.000000
s 1
g pCylinder1
usemtl initialShadingGroup
f 1/1/1 2/2/2 10/3/3 9/4/4
f 2/2/2 3/5/5 11/6/6 10/3/3
f 3/5/5 4/7/7 12/8/8 11/6/6
f 4/7/7 5/9/9 13/10/10 12/8/8
f 5/9/9 6/11/11 14/18/12 13/10/10
f 6/17/11 7/13/13 15/14/14 14/12/12
f 7/13/13 8/15/15 16/16/16 15/14/14
f 8/15/15 1/1/1 9/4/4 16/16/16
