# This file uses meters as units for non-parametric coordinates.

mtllib BubbleDetail.mtl
g default
v 12.000000 0.119988 1.092667
v 12.000000 -0.000001 0.972679
v 9.657959 -0.000000 0.972679
v 9.657959 0.119987 1.092667
v 12.000000 1.199997 0.972679
v 12.000000 1.080009 1.092667
v 9.657959 1.080009 1.092667
v 9.657959 1.199997 0.972679
v 0.000000 -0.000000 0.000000
v 2.342010 -0.000000 0.000000
v 0.000000 1.199997 0.000000
v 2.342010 1.199997 0.000000
v 6.000000 0.119987 1.092667
v 6.000000 -0.000001 0.972679
v 3.561340 -0.000000 0.972679
v 3.561340 0.119987 1.092667
v 6.000000 -0.000001 0.000000
v 8.438660 -0.000000 0.000000
v 6.000000 1.199997 0.000000
v 8.438660 1.199997 0.000000
v 6.000000 1.199997 0.972679
v 6.000000 1.080009 1.092667
v 3.561340 1.080009 1.092667
v 3.561340 1.199997 0.972679
v 8.438660 0.119987 1.092667
v 8.438660 -0.000000 0.972679
v 8.438660 1.199997 0.972679
v 8.438660 1.080009 1.092667
v 12.000000 -0.000001 0.000000
v 9.657959 -0.000000 0.000000
v 12.000000 1.199997 0.000000
v 9.657959 1.199997 0.000000
v 0.000000 -0.000000 0.972679
v 0.000000 0.119987 1.092667
v 2.342010 0.119987 1.092667
v 2.342010 -0.000000 0.972679
v 0.000000 1.080009 1.092667
v 0.000000 1.199997 0.972679
v 2.342010 1.199997 0.972679
v 2.342010 1.080009 1.092667
v 3.561340 -0.000000 0.000000
v 3.561340 1.199997 0.000000
v 8.438660 -0.190714 1.163391
v 8.438660 -0.070725 1.283379
v 8.560547 -0.192646 1.405304
v 8.560608 -0.312634 1.285309
v 8.438660 1.270721 1.283379
v 8.438660 1.390717 1.163391
v 8.560608 1.512634 1.285309
v 8.560608 1.392639 1.405304
v 8.560608 -0.312634 -0.000003
v 8.438660 -0.190714 -0.000002
v 8.438660 1.390717 -0.000002
v 8.560608 1.512634 -0.000003
v 9.536072 -0.312634 1.285309
v 9.536072 -0.192646 1.405304
v 9.657959 -0.070725 1.283379
v 9.657959 -0.190714 1.163391
v 9.657959 1.390717 1.163391
v 9.657959 1.270721 1.283379
v 9.536072 1.392639 1.405304
v 9.536072 1.512634 1.285309
v 9.657959 -0.190714 -0.000002
v 9.536072 -0.312634 -0.000003
v 9.657959 1.390717 -0.000002
v 9.536072 1.512634 -0.000003
v 2.342010 -0.190714 1.163391
v 2.342010 -0.070725 1.283379
v 2.463928 -0.192646 1.405304
v 2.463928 -0.312634 1.285309
v 2.342010 1.270721 1.283379
v 2.342010 1.390717 1.163391
v 2.463928 1.512634 1.285309
v 2.463928 1.392639 1.405304
v 2.463928 -0.312634 -0.000003
v 2.342010 -0.190714 -0.000002
v 2.342010 1.390717 -0.000002
v 2.463928 1.512634 -0.000003
v 3.439423 -0.312634 1.285309
v 3.439423 -0.192646 1.405304
v 3.561340 -0.070725 1.283379
v 3.561340 -0.190714 1.163391
v 3.561340 1.390717 1.163391
v 3.561340 1.270721 1.283379
v 3.439423 1.392639 1.405304
v 3.439423 1.512634 1.285309
v 3.561340 -0.190714 -0.000002
v 3.439423 -0.312634 -0.000003
v 3.561340 1.390717 -0.000002
v 3.439423 1.512634 -0.000003
vt 0.979729 0.142862
vt 0.979725 0.165224
vt 0.671092 0.165174
vt 0.600550 0.600808
vt 0.574062 0.636111
vt 0.573967 0.610510
vt 0.979705 0.291737
vt 0.979701 0.314099
vt 0.671068 0.314049
vt 0.600321 0.797334
vt 0.572302 0.837242
vt 0.573368 0.811681
vt 0.344022 0.165912
vt 0.344019 0.143550
vt 0.665389 0.143519
vt 0.369963 0.649484
vt 0.022652 0.165944
vt 0.600553 0.600809
vt 0.574065 0.636112
vt 0.573970 0.610511
vt 0.344036 0.314787
vt 0.344034 0.292425
vt 0.665403 0.292394
vt 0.369734 0.846011
vt 0.022667 0.314819
vt 0.600321 0.797336
vt 0.572301 0.837243
vt 0.573368 0.811683
vt 0.397983 0.609576
vt 0.396916 0.635137
vt 0.396222 0.810708
vt 0.396317 0.836308
vt 0.671082 0.165198
vt 0.671082 0.142837
vt 0.979715 0.142838
vt 0.369966 0.649483
vt 0.397985 0.609576
vt 0.396919 0.635136
vt 0.671081 0.314073
vt 0.671081 0.291712
vt 0.979715 0.291713
vt 0.369734 0.846010
vt 0.396222 0.810707
vt 0.396317 0.836307
vt 0.421347 0.612118
vt 0.419754 0.628366
vt 0.550835 0.613515
vt 0.550208 0.629488
vt 0.420077 0.817331
vt 0.419449 0.833304
vt 0.550530 0.818452
vt 0.548937 0.834699
vt 0.421349 0.612118
vt 0.419756 0.628366
vt 0.550838 0.613516
vt 0.550210 0.629489
vt 0.420077 0.817330
vt 0.419449 0.833303
vt 0.550530 0.818453
vt 0.548937 0.834701
vt 0.979681 0.442280
vt 0.671047 0.442230
vt 0.608351 0.456718
vt 0.979750 0.014682
vt 0.979716 0.014657
vt 0.671082 0.014656
vt 0.361933 0.990100
vt 0.671081 0.442254
vt 0.665376 0.015338
vt 0.344007 0.015370
vt 0.361936 0.990102
vt 0.344049 0.442968
vt 0.608353 0.456719
vt 0.022679 0.442999
vt 0.388066 0.456583
vt 0.413027 0.452842
vt 0.413060 0.996336
vt 0.388146 0.992305
vt 0.557227 0.450482
vt 0.582141 0.454514
vt 0.582221 0.990234
vt 0.557260 0.993976
vt 0.388069 0.456583
vt 0.413030 0.452842
vt 0.413057 0.996336
vt 0.388143 0.992304
vt 0.557230 0.450483
vt 0.582144 0.454515
vt 0.582218 0.990236
vt 0.557256 0.993977
vt 0.608416 0.988193
vt 0.600476 0.847108
vt 0.022664 0.292457
vt 0.600162 0.651402
vt 0.022650 0.143582
vt 0.022637 0.015401
vt 0.665391 0.165880
vt 0.370124 0.795418
vt 0.665405 0.314755
vt 0.665418 0.442936
vt 0.361867 0.458626
vt 0.369808 0.599711
vt 0.979715 0.165199
vt 0.370125 0.795417
vt 0.979715 0.314074
vt 0.979714 0.442255
vt 0.361870 0.458626
vt 0.369811 0.599711
vt 0.671095 0.142812
vt 0.671116 0.014632
vt 0.608419 0.988191
vt 0.600477 0.847106
vt 0.671071 0.291687
vt 0.600160 0.651400
vn 0.000000 -0.707104 0.707110
vn 0.000000 -0.707104 0.707110
vn 0.000000 -0.707104 0.707110
vn 0.000000 -0.707104 0.707110
vn 1.000000 -0.000001 0.000000
vn 1.000000 0.000000 0.000000
vn 1.000000 0.000000 0.000000
vn 1.000000 -0.000001 0.000000
vn 0.000000 0.707107 0.707107
vn 0.000000 0.707107 0.707107
vn 0.000000 0.707107 0.707107
vn 0.000000 0.707107 0.707107
vn 1.000000 0.000000 0.000000
vn 1.000000 0.000000 0.000000
vn 1.000000 0.000000 0.000000
vn 1.000000 0.000000 0.000000
vn -0.000000 -0.707106 0.707108
vn -0.000000 -0.707105 0.707108
vn 0.000000 -0.707105 0.707108
vn 0.000000 -0.707105 0.707108
vn -0.000000 -0.707106 0.707108
vn -0.000000 -0.707106 0.707108
vn 1.000000 -0.000000 0.000000
vn 1.000000 0.000000 0.000000
vn 1.000000 0.000000 0.000000
vn 1.000000 -0.000000 0.000000
vn 0.000000 0.707107 0.707107
vn 0.000000 0.707107 0.707107
vn 0.000000 0.707107 0.707107
vn 0.000000 0.707107 0.707107
vn 0.000000 0.707107 0.707107
vn 0.000000 0.707107 0.707107
vn 1.000000 0.000000 0.000000
vn 1.000000 -0.000001 0.000000
vn 1.000000 -0.000000 0.000000
vn 1.000000 0.000000 0.000000
vn -1.000000 0.000000 0.000000
vn -1.000000 -0.000003 0.000000
vn -1.000000 -0.000002 0.000000
vn -1.000000 0.000000 0.000000
vn -1.000000 0.000005 0.000000
vn -1.000000 0.000000 0.000000
vn -1.000000 0.000000 0.000000
vn -1.000000 0.000004 0.000000
vn 0.000000 -0.707106 0.707108
vn 0.000000 -0.707106 0.707108
vn 0.000000 -0.707106 0.707108
vn 0.000000 -0.707106 0.707108
vn -1.000000 0.000000 0.000000
vn -1.000000 -0.000000 0.000000
vn -1.000000 -0.000000 0.000000
vn -1.000000 0.000000 0.000000
vn 0.000000 0.707107 0.707107
vn 0.000000 0.707107 0.707107
vn 0.000000 0.707107 0.707107
vn 0.000000 0.707107 0.707107
vn -1.000000 0.000000 0.000000
vn -1.000000 0.000000 0.000000
vn -1.000000 0.000000 0.000000
vn -1.000000 0.000000 0.000000
vn -0.725473 -0.038228 0.687188
vn -0.728436 -0.683638 0.044949
vn -0.748198 -0.657186 0.091142
vn -0.743290 -0.078943 0.664295
vn 0.000000 -0.707129 0.707084
vn 0.000000 -0.707129 0.707084
vn 0.000000 -0.707129 0.707084
vn 0.000000 -0.707129 0.707084
vn -0.816433 0.408305 0.408319
vn -0.725463 0.038256 0.687197
vn -0.743263 0.078951 0.664325
vn -0.816433 0.408305 0.408319
vn 0.000000 0.707107 0.707107
vn 0.000000 0.707107 0.707107
vn 0.000000 0.707107 0.707107
vn 0.000000 0.707107 0.707107
vn 0.743362 -0.078916 0.664218
vn 0.748368 -0.656986 0.091180
vn 0.728607 -0.683455 0.044957
vn 0.725554 -0.038226 0.687103
vn 0.725554 0.038226 0.687103
vn 0.816570 0.408167 0.408183
vn 0.816570 0.408167 0.408183
vn 0.743361 0.078915 0.664219
vn -0.725468 -0.038233 0.687193
vn -0.728522 -0.683545 0.044964
vn -0.748284 -0.657081 0.091189
vn -0.743276 -0.078923 0.664313
vn 0.000000 -0.707129 0.707084
vn 0.000000 -0.707129 0.707084
vn 0.000000 -0.707129 0.707084
vn 0.000000 -0.707129 0.707084
vn -0.816501 0.408237 0.408251
vn -0.725468 0.038232 0.687193
vn -0.743275 0.078922 0.664314
vn -0.816501 0.408237 0.408251
vn 0.000000 0.707107 0.707107
vn 0.000000 0.707107 0.707107
vn 0.000000 0.707107 0.707107
vn 0.000000 0.707107 0.707107
vn 0.816504 -0.408246 0.408236
vn 0.748284 -0.657082 0.091189
vn 0.728522 -0.683545 0.044964
vn 0.816504 -0.408246 0.408236
vn 0.725468 0.038232 0.687193
vn 0.816501 0.408237 0.408250
vn 0.816501 0.408237 0.408250
vn 0.743276 0.078922 0.664314
vn -0.000000 0.000000 1.000000
vn -0.000000 0.000000 1.000000
vn -0.000000 0.000000 1.000000
vn -0.000000 0.000000 1.000000
vn 0.000000 1.000000 0.000000
vn 0.000000 1.000000 0.000000
vn 0.000000 1.000000 0.000000
vn 0.000000 1.000000 0.000000
vn -0.000000 -1.000000 0.000000
vn -0.000000 -1.000000 0.000000
vn -0.000000 -1.000000 0.000000
vn -0.000000 -1.000000 0.000000
vn 0.000000 -1.000000 0.000000
vn 0.000000 -1.000000 0.000000
vn 0.000000 -1.000000 0.000000
vn 0.000000 -1.000000 0.000000
vn 0.000000 1.000000 0.000000
vn 0.000000 1.000000 0.000000
vn 0.000000 1.000000 0.000000
vn 0.000000 1.000000 0.000000
vn 0.000000 0.000000 1.000000
vn 0.000000 0.000000 1.000000
vn 0.000000 0.000000 1.000000
vn 0.000000 0.000000 1.000000
vn 0.000000 -1.000000 0.000000
vn 0.000000 -1.000000 0.000000
vn 0.000000 -1.000000 0.000000
vn 0.000000 -1.000000 0.000000
vn 0.000000 1.000000 0.000000
vn 0.000000 1.000000 0.000000
vn 0.000000 1.000000 0.000000
vn 0.000000 1.000000 0.000000
vn 0.000000 0.000000 1.000000
vn 0.000000 0.000000 1.000000
vn 0.000000 0.000000 1.000000
vn 0.000000 0.000000 1.000000
vn -0.000000 -1.000000 0.000000
vn -0.000000 -1.000000 0.000000
vn 0.000000 0.000000 1.000000
vn 0.000000 0.000000 1.000000
vn 0.000000 1.000000 0.000000
vn 0.000000 1.000000 0.000000
vn -0.707022 -0.707191 0.000000
vn -0.707022 -0.707191 0.000000
vn -0.707017 0.707197 0.000000
vn -0.707017 0.707197 0.000000
vn -0.707017 0.707197 0.000000
vn -0.707017 0.707197 0.000000
vn 0.707201 -0.707013 0.000000
vn 0.707201 -0.707013 0.000000
vn 0.707195 0.707018 0.000000
vn 0.707195 0.707018 0.000000
vn 0.707195 0.707018 0.000000
vn 0.707195 0.707018 0.000000
vn -0.707113 -0.707101 0.000000
vn -0.707113 -0.707101 0.000000
vn -0.707107 0.707106 0.000000
vn -0.707107 0.707106 0.000000
vn -0.707107 0.707106 0.000000
vn -0.707107 0.707106 0.000000
vn 0.707129 0.000000 0.707085
vn 0.707129 0.000000 0.707084
vn 0.707112 -0.707101 0.000000
vn 0.707112 -0.707101 0.000000
vn 0.707107 0.707107 0.000000
vn 0.707107 0.707107 0.000000
vn 0.707107 0.707107 0.000000
vn 0.707107 0.707107 0.000000
vn 0.000000 -1.000000 0.000000
vn 0.000000 -1.000000 0.000000
vn 0.000000 -1.000000 0.000000
vn 0.000000 -1.000000 0.000000
vn 0.000000 0.000000 1.000000
vn 0.000000 0.000000 1.000000
vn 0.000000 0.000000 1.000000
vn 0.000000 0.000000 1.000000
vn 0.000000 1.000000 0.000000
vn 0.000000 1.000000 0.000000
vn 0.000000 1.000000 0.000000
vn 0.000000 1.000000 0.000000
vn 0.000000 -1.000000 0.000000
vn 0.000000 -1.000000 0.000000
vn 0.000000 -1.000000 0.000000
vn 0.000000 -1.000000 0.000000
vn 0.000000 0.000000 1.000000
vn 0.000000 0.000000 1.000000
vn 0.000000 0.000000 1.000000
vn 0.000000 0.000000 1.000000
vn 0.000000 1.000000 0.000000
vn 0.000000 1.000000 0.000000
vn 0.000000 1.000000 0.000000
vn 0.000000 1.000000 0.000000
vn -1.000000 -0.000003 0.000000
vn -1.000000 -0.000003 0.000000
vn -1.000000 0.000005 0.000000
vn -1.000000 0.000005 0.000000
vn 1.000000 -0.000001 0.000000
vn 1.000000 -0.000001 0.000000
vn 1.000000 0.000000 0.000000
vn 1.000000 0.000000 0.000000
vn -1.000000 -0.000000 0.000000
vn -1.000000 -0.000000 0.000000
vn -1.000000 0.000000 0.000000
vn -1.000000 0.000000 0.000000
vn 1.000000 -0.000001 0.000000
vn 1.000000 -0.000001 0.000000
vn 1.000000 -0.000001 0.000000
vn 1.000000 -0.000001 0.000000
s off
g BubbleDetail
usemtl lambert23SG
f 2/1/1 1/2/2 4/3/3 3/109/4
s 1
f 3/4/5 4/114/6 57/5/7 58/6/8
s off
f 6/7/9 5/8/10 8/9/11 7/113/12
s 1
f 7/10/13 8/112/14 59/11/15 60/12/16
s 3
f 13/13/17 14/14/18 26/15/19 25/97/20
f 14/14/18 13/13/17 16/17/21 15/95/22
s 4
f 15/18/23 16/94/24 81/19/25 82/20/26
s 5
f 21/21/27 22/22/28 28/23/29 27/99/30
f 22/22/28 21/21/27 24/25/31 23/93/32
s 4
f 23/26/33 24/92/34 83/27/35 84/28/36
s 7
f 25/16/37 26/102/38 43/29/39 44/30/40
f 27/24/41 28/98/42 47/31/43 48/32/44
s off
f 34/33/45 33/34/46 36/35/47 35/103/48
s 8
f 35/36/49 36/108/50 67/37/51 68/38/52
s off
f 38/39/53 37/40/54 40/41/55 39/105/56
s 8
f 39/42/57 40/104/58 71/43/59 72/44/60
s 9
f 44/30/61 43/29/62 46/45/63 45/46/64
s off
f 45/46/65 46/45/66 55/47/67 56/48/68
s 9
f 48/32/69 47/31/70 50/49/71 49/50/72
s off
f 49/50/73 50/49/74 61/51/75 62/52/76
s 10
f 56/48/77 55/47/78 58/6/79 57/5/80
f 60/12/81 59/11/82 62/52/83 61/51/84
s 11
f 68/38/85 67/37/86 70/53/87 69/54/88
s off
f 69/54/89 70/53/90 79/55/91 80/56/92
s 11
f 72/44/93 71/43/94 74/57/95 73/58/96
s off
f 73/58/97 74/57/98 85/59/99 86/60/100
s 12
f 80/56/101 79/55/102 82/20/103 81/19/104
s 13
f 84/28/105 83/27/106 86/60/107 85/59/108
s off
f 4/3/109 1/2/110 6/7/111 7/113/112
f 8/9/113 5/8/114 31/61/115 32/62/116
f 30/110/117 29/64/118 2/1/119 3/109/120
f 10/65/121 36/35/122 33/34/123 9/66/124
f 39/105/125 12/106/126 11/68/127 38/39/128
f 35/103/129 40/41/130 37/40/131 34/33/132
s 14
f 18/69/133 26/15/134 14/14/135 17/70/136
s 15
f 27/99/137 20/100/138 19/72/139 21/21/140
s 16
f 25/97/141 28/23/142 22/22/143 13/13/144
s 14
f 17/70/136 14/14/135 15/95/145 41/96/146
s 16
f 13/13/144 22/22/143 23/93/147 16/17/148
s 15
f 21/21/140 19/72/139 42/74/149 24/25/150
s 9
f 44/30/61 45/46/64 50/49/71 47/31/70
f 46/45/63 43/29/62 52/75/151 51/76/152
s off
f 48/32/153 49/50/154 54/77/155 53/78/156
s 10
f 56/48/77 57/5/80 60/12/81 61/51/84
f 58/6/79 55/47/78 64/79/157 63/80/158
s off
f 65/81/159 66/82/160 62/52/161 59/11/162
s 11
f 68/38/85 69/54/88 74/57/95 71/43/94
f 70/53/87 67/37/86 76/83/163 75/84/164
s off
f 72/44/165 73/58/166 78/85/167 77/86/168
s 13
f 80/56/169 81/19/170 84/28/105 85/59/108
s 12
f 82/20/103 79/55/102 88/87/171 87/88/172
s off
f 89/89/173 90/90/174 86/60/175 83/27/176
f 55/47/177 46/45/178 51/76/179 64/79/180
f 61/51/181 50/49/182 45/46/183 56/48/184
f 66/82/185 54/77/186 49/50/187 62/52/188
f 79/55/189 70/53/190 75/84/191 88/87/192
f 85/59/193 74/57/194 69/54/195 80/56/196
f 90/90/197 78/85/198 73/58/199 86/60/200
s 7
f 26/102/38 18/101/201 52/75/202 43/29/39
f 28/98/42 25/16/37 44/30/40 47/31/43
f 20/71/203 27/24/41 48/32/44 53/78/204
s 1
f 30/63/205 3/4/5 58/6/8 63/80/206
f 8/112/14 32/111/207 65/81/208 59/11/15
f 4/114/6 7/10/13 60/12/16 57/5/7
s 8
f 36/108/50 10/107/209 76/83/210 67/37/51
f 40/104/58 35/36/49 68/38/52 71/43/59
f 12/67/211 39/42/57 72/44/60 77/86/212
s 4
f 41/73/213 15/18/23 82/20/26 87/88/214
f 24/92/34 42/91/215 89/89/216 83/27/35
f 16/94/24 23/26/33 84/28/36 81/19/25
