# This file uses meters as units for non-parametric coordinates.

mtllib DipCorner.mtl
g default
v 12.000000 -0.000000 0.000000
v 10.200012 -0.881851 10.200012
v 12.000000 -0.881851 10.200012
v 12.000000 -0.000000 9.979553
v 12.000000 -0.220441 10.200012
v 10.200012 -0.220439 10.200012
v 9.979553 0.000000 9.979553
v 9.968262 -0.000000 0.000000
v 0.000000 -0.000000 0.000000
v 0.000000 -0.000000 12.000000
v 12.000000 -0.881851 10.200012
v 10.200012 -0.881851 12.000000
v 12.000000 -0.881851 12.000000
v 10.200012 -0.220441 12.000000
v 9.979553 -0.000000 12.000000
v 0.000000 -0.000000 9.948303
vt 0.719008 0.286297
vt 0.743821 0.270526
vt 0.872435 0.270526
vt 0.872435 0.286297
vt 0.788990 0.227420
vt 0.872435 0.234972
vt 0.872435 0.998375
vt 0.719008 0.998375
vt 0.922545 0.100454
vt 0.922545 0.227420
vt 0.781658 0.124010
vt 0.719008 0.124010
vt 0.743821 0.124010
vt 0.002117 0.286297
vt 0.002117 0.124010
vt 0.002117 0.998375
vt 0.781658 0.234972
vt 0.788990 0.100454
vn 0.000000 0.707137 0.707076
vn 0.000000 0.707137 0.707076
vn 0.000000 0.707137 0.707076
vn 0.000000 0.707137 0.707076
vn -0.000000 0.000000 1.000000
vn -0.000000 0.000000 1.000000
vn -0.000000 0.000000 1.000000
vn -0.000000 0.000000 1.000000
vn 0.000000 1.000000 -0.000000
vn 0.000000 1.000000 -0.000000
vn 0.000000 1.000000 -0.000000
vn 0.000000 1.000000 -0.000000
vn 0.000000 1.000000 0.000000
vn 0.000000 1.000000 0.000000
vn 0.000000 1.000000 0.000000
vn 0.000000 1.000000 0.000000
vn 0.707075 0.707138 0.000000
vn 0.707075 0.707138 0.000000
vn 0.707075 0.707138 0.000000
vn 0.707075 0.707138 0.000000
vn -0.000000 1.000000 0.000000
vn -0.000000 1.000000 -0.000000
vn -0.000000 1.000000 0.000000
vn -0.000000 1.000000 0.000000
vn 1.000000 0.000000 0.000000
vn 1.000000 0.000000 0.000000
vn 1.000000 0.000000 0.000000
vn 1.000000 0.000000 0.000000
vn -0.000000 1.000000 -0.000000
vn -0.000000 1.000000 -0.000000
s off
g DipCorner
usemtl lambert10SG
f 7/1/1 6/2/2 5/3/3 4/4/4
f 5/3/5 6/2/6 2/17/7 3/6/8
f 1/7/9 8/8/10 7/1/11 4/4/12
f 13/9/13 11/10/14 2/5/15 12/18/16
f 15/12/17 14/13/18 6/2/19 7/1/20
s 1
f 7/1/21 16/14/22 10/15/23 15/12/24
s off
f 2/17/25 6/2/26 14/13/27 12/11/28
s 1
f 9/16/29 16/14/22 7/1/21 8/8/30
