# This file uses meters as units for non-parametric coordinates.

mtllib DoorFrameLRG.mtl
g default
v 0.000001 7.150818 1.000000
v 11.134033 7.150818 1.000000
v 0.000001 7.150818 0.000000
v 11.134033 7.150818 0.000000
v 10.870850 6.782776 1.000000
v 0.263174 6.782776 1.000000
v 0.263174 6.782776 0.000000
v 10.870850 6.782776 0.000000
v 11.134033 0.000008 1.000000
v 10.873169 0.000007 1.000000
v 10.873169 0.000007 0.000000
v 11.134033 0.000008 0.000000
v 0.000001 0.000008 1.000000
v 0.000001 0.000008 0.000000
v 0.260826 0.000007 0.000000
v 0.260826 0.000007 1.000000
vt 0.885423 0.696939
vt 0.797176 0.696944
vt 0.885427 0.696935
vt 0.300725 0.989035
vt 0.908649 0.664459
vt 0.179881 0.029682
vt 0.908650 0.664452
vt 0.333202 0.965806
vt 0.605038 0.031401
vt 0.797110 0.065876
vt 0.908379 0.065864
vt 0.885361 0.065867
vt 0.797181 0.065870
vt 0.885432 0.065871
vt 0.693158 0.967969
vt 0.908450 0.065871
vt 0.507040 0.113892
vt 0.604907 0.967956
vt 0.693290 0.031414
vt 0.507091 0.113900
vt 0.605054 0.031607
vt 0.179990 0.965823
vt 0.773947 0.664457
vt 0.693305 0.031623
vt 0.507059 0.712480
vt 0.604891 0.967747
vt 0.693142 0.967763
vt 0.333093 0.029665
vt 0.300610 0.006443
vt 0.797172 0.696938
vt 0.212473 0.989045
vt 0.212359 0.006453
vt 0.418840 0.113888
vt 0.418758 0.712476
vt 0.774092 0.065878
vt 0.773947 0.664466
vt 0.507009 0.712488
vt 0.774163 0.065869
vt 0.418808 0.712483
vt 0.418789 0.113895
vn 0.000000 1.000000 0.000000
vn 0.000000 1.000000 0.000000
vn 0.000000 1.000000 0.000000
vn 0.000000 1.000000 0.000000
vn 0.000000 0.000000 1.000000
vn 0.000000 0.000000 1.000000
vn 0.000000 0.000000 1.000000
vn 0.000000 0.000000 1.000000
vn 0.000000 0.000000 -1.000000
vn 0.000000 0.000000 -1.000000
vn 0.000000 0.000000 -1.000000
vn 0.000000 0.000000 -1.000000
vn 0.000000 -1.000000 0.000000
vn 0.000000 -1.000000 0.000000
vn 0.000000 -1.000000 0.000000
vn 0.000000 -1.000000 0.000000
vn 0.000000 0.000000 1.000000
vn 0.000000 0.000000 1.000000
vn -1.000000 -0.000342 0.000000
vn -1.000000 -0.000342 0.000000
vn -1.000000 -0.000342 0.000000
vn -1.000000 -0.000342 0.000000
vn 0.000000 0.000000 -1.000000
vn 0.000000 0.000000 -1.000000
vn 1.000000 0.000000 0.000000
vn 1.000000 0.000000 0.000000
vn 1.000000 0.000000 0.000000
vn 1.000000 0.000000 0.000000
vn -1.000000 0.000000 0.000000
vn -1.000000 0.000000 0.000000
vn -1.000000 0.000000 0.000000
vn -1.000000 0.000000 0.000000
vn 0.000000 0.000000 -1.000000
vn 0.000000 0.000000 -1.000000
vn 1.000000 -0.000346 0.000000
vn 1.000000 -0.000346 0.000000
vn 1.000000 -0.000346 0.000000
vn 1.000000 -0.000346 0.000000
vn 0.000000 0.000000 1.000000
vn 0.000000 0.000000 1.000000
vn 0.000000 1.000000 0.000000
vn 0.000000 1.000000 0.000000
vn 0.000000 1.000000 0.000000
vn 0.000000 1.000000 0.000000
s off
g DoorFrameLRG
usemtl lambert26SG
f 1/31/1 2/32/2 4/29/3 3/4/4
s 1
f 2/32/5 1/31/6 6/22/7 5/6/8
s 2
f 3/4/9 4/29/10 8/28/11 7/8/12
s off
f 5/26/13 6/21/14 7/24/15 8/27/16
s 1
f 10/35/17 9/10/18 2/2/5 5/36/8
s off
f 5/25/19 8/39/20 11/40/21 10/17/22
s 2
f 4/3/10 12/12/23 11/11/24 8/7/11
s off
f 9/10/25 12/12/26 4/3/27 2/2/28
f 14/13/29 13/14/30 1/1/31 3/30/32
s 2
f 15/38/33 14/13/34 3/30/9 7/23/12
s off
f 7/37/35 6/34/36 16/33/37 15/20/38
s 1
f 1/1/6 13/14/39 16/16/40 6/5/7
s off
f 10/9/41 11/19/42 15/15/43 16/18/44
