# This file uses meters as units for non-parametric coordinates.

mtllib DoorFrameSM.mtl
g default
v 0.000000 5.251160 1.000000
v 2.432510 5.251160 1.000000
v 0.000000 5.251160 0.000000
v 2.432510 5.251160 0.000000
v 2.169327 4.883118 1.000000
v 0.263174 4.883118 1.000000
v 0.263174 4.883118 0.000000
v 2.169327 4.883118 0.000000
v 2.432510 0.000008 1.000000
v 2.171677 0.000007 1.000000
v 2.171677 0.000007 0.000000
v 2.432510 0.000008 0.000000
v 0.000000 0.000008 1.000000
v 0.000000 0.000008 0.000000
v 0.260826 0.000007 0.000000
v 0.260826 0.000007 1.000000
vt 0.932606 0.947492
vt 0.758409 0.947478
vt 0.932613 0.947480
vt 0.027472 0.318717
vt 0.978459 0.883383
vt 0.405397 0.080431
vt 0.978460 0.883366
vt 0.073312 0.382836
vt 0.231983 0.456179
vt 0.758414 0.032706
vt 0.978055 0.032707
vt 0.932618 0.032707
vt 0.758510 0.032699
vt 0.932713 0.032719
vt 0.406185 0.789058
vt 0.978150 0.032725
vt 0.670838 0.025771
vt 0.713073 0.032693
vt 0.496651 0.025779
vt 0.231981 0.789057
vt 0.406217 0.788632
vt 0.073337 0.080403
vt 0.496691 0.876355
vt 0.670884 0.025736
vt 0.712977 0.032705
vt 0.496680 0.025729
vt 0.406187 0.456180
vt 0.670849 0.876398
vt 0.406155 0.456573
vt 0.712563 0.883364
vt 0.712563 0.883352
vt 0.670878 0.876347
vt 0.232014 0.788665
vt 0.231951 0.456605
vt 0.405372 0.382863
vt 0.496645 0.876391
vt 0.451224 0.318752
vt 0.758402 0.947472
vt 0.027486 0.144514
vt 0.451238 0.144549
vn 0.000000 1.000000 0.000000
vn 0.000000 1.000000 0.000000
vn 0.000000 1.000000 0.000000
vn 0.000000 1.000000 0.000000
vn 0.000000 0.000000 1.000000
vn 0.000000 0.000000 1.000000
vn 0.000000 0.000000 1.000000
vn 0.000000 0.000000 1.000000
vn 0.000000 0.000000 -1.000000
vn 0.000000 0.000000 -1.000000
vn 0.000000 0.000000 -1.000000
vn 0.000000 0.000000 -1.000000
vn 0.000000 -1.000000 0.000000
vn 0.000000 -1.000000 0.000000
vn 0.000000 -1.000000 0.000000
vn 0.000000 -1.000000 0.000000
vn 0.000000 0.000000 1.000000
vn 0.000000 0.000000 1.000000
vn -1.000000 -0.000481 0.000000
vn -1.000000 -0.000481 0.000000
vn -1.000000 -0.000481 0.000000
vn -1.000000 -0.000481 0.000000
vn 0.000000 0.000000 -1.000000
vn 0.000000 0.000000 -1.000000
vn 1.000000 0.000000 0.000000
vn 1.000000 0.000000 0.000000
vn 1.000000 0.000000 0.000000
vn 1.000000 0.000000 0.000000
vn -1.000000 0.000000 0.000000
vn -1.000000 0.000000 0.000000
vn -1.000000 0.000000 0.000000
vn -1.000000 0.000000 0.000000
vn 0.000000 0.000000 -1.000000
vn 0.000000 0.000000 -1.000000
vn 1.000000 -0.000481 0.000000
vn 1.000000 -0.000481 0.000000
vn 1.000000 -0.000481 0.000000
vn 1.000000 -0.000481 0.000000
vn 0.000000 0.000000 1.000000
vn 0.000000 0.000000 1.000000
vn 0.000000 1.000000 0.000000
vn 0.000000 1.000000 0.000000
vn 0.000000 1.000000 0.000000
vn 0.000000 1.000000 0.000000
s off
g DoorFrameSM
usemtl lambert27SG
f 1/39/1 2/40/2 4/37/3 3/4/4
s 1
f 2/40/5 1/39/6 6/22/7 5/6/8
s 2
f 3/4/9 4/37/10 8/35/11 7/8/12
s off
f 5/29/13 6/21/14 7/33/15 8/34/16
s 1
f 10/25/17 9/10/18 2/2/5 5/30/8
s off
f 5/28/19 8/36/20 11/26/21 10/24/22
s 2
f 4/3/10 12/12/23 11/11/24 8/7/11
s off
f 9/10/25 12/12/26 4/3/27 2/2/28
f 14/13/29 13/14/30 1/1/31 3/38/32
s 2
f 15/18/33 14/13/34 3/38/9 7/31/12
s off
f 7/32/35 6/23/36 16/19/37 15/17/38
s 1
f 1/1/6 13/14/39 16/16/40 6/5/7
s off
f 10/9/41 11/27/42 15/15/43 16/20/44
