# This file uses meters as units for non-parametric coordinates.

mtllib DoorSM.mtl
g default
v 0.000000 0.000000 0.000000
v 12.000000 0.000000 0.000000
v 0.000000 12.000000 0.000000
v 12.000000 12.000000 0.000000
v 0.000000 5.013153 0.013985
v 12.000000 5.013153 0.013985
v 4.855743 0.000000 -0.000000
v 4.855743 5.013153 0.013985
v 4.855743 12.000000 0.000000
v 7.144287 0.000000 -0.000000
v 7.144287 5.013153 0.013985
v 7.144287 12.000000 0.000000
vt 0.000000 0.417762
vt 0.404645 0.417762
vt 0.404645 1.000000
vt 0.000000 1.000000
vt 0.000000 0.000000
vt 0.404645 0.000000
vt 0.595356 1.000000
vt 0.595356 0.417762
vt 0.595356 0.000000
vt 1.000000 0.000000
vt 1.000000 0.417762
vt 1.000000 1.000000
vn 0.000000 -0.000000 1.000000
vn 0.000000 0.000431 1.000000
vn 0.000000 0.002002 0.999998
vn 0.000000 0.002002 0.999998
vn 0.000000 -0.002790 0.999996
vn 0.000000 -0.002790 0.999996
vn 0.000000 0.002002 0.999998
vn -0.000000 0.000431 1.000000
vn -0.000000 -0.002790 0.999996
vn -0.000000 -0.002790 0.999996
vn -0.000000 -0.000000 1.000000
vn 0.000000 0.002002 0.999998
s 1
g DoorWallSM
usemtl lambert15SG
f 5/1/1 8/2/2 9/3/3 3/4/4
f 1/5/5 7/6/6 8/2/2 5/1/1
f 12/7/7 9/3/3 8/2/2 11/8/8
f 11/8/8 10/9/9 2/10/10 6/11/11
f 12/7/7 11/8/8 6/11/11 4/12/12
