# This file uses meters as units for non-parametric coordinates.

mtllib ExitDoorFrame.mtl
g default
v 0.000000 7.557739 1.000000
v 7.932861 7.557739 1.000000
v 0.000000 7.557739 0.000000
v 7.932861 7.557739 0.000000
v 6.895935 6.483826 1.000000
v 1.036926 6.483826 1.000000
v 1.036926 6.483826 0.000000
v 6.895935 6.483826 0.000000
v 7.932861 0.000010 1.000000
v 6.897217 0.000009 1.000000
v 6.897217 0.000009 0.000000
v 7.932861 0.000010 0.000000
v 0.000000 0.000010 1.000000
v 0.000000 0.000010 0.000000
v 1.035645 0.000009 0.000000
v 1.035645 0.000009 1.000000
vt 0.875024 0.857277
vt 0.770530 0.857293
vt 0.874845 0.857291
vt 0.233893 0.924771
vt 0.983151 0.745206
vt 0.016171 0.205839
vt 0.983011 0.745259
vt 0.345716 0.816389
vt 0.531129 0.207899
vt 0.770515 0.068905
vt 0.982863 0.068901
vt 0.874831 0.068903
vt 0.770420 0.068926
vt 0.874735 0.068888
vt 0.635550 0.819332
vt 0.982768 0.068848
vt 0.486652 0.146725
vt 0.531235 0.819350
vt 0.635444 0.207881
vt 0.486579 0.146714
vt 0.531135 0.208033
vt 0.017340 0.817018
vt 0.662500 0.745324
vt 0.635450 0.208017
vt 0.486587 0.823083
vt 0.531229 0.819213
vt 0.635544 0.819197
vt 0.344546 0.205211
vt 0.232309 0.097257
vt 0.770709 0.857315
vt 0.129578 0.924971
vt 0.127994 0.097457
vt 0.382264 0.146726
vt 0.382344 0.823084
vt 0.662483 0.068907
vt 0.662360 0.745265
vt 0.486660 0.823072
vt 0.662387 0.068966
vt 0.382272 0.823073
vt 0.382337 0.146715
vn 0.000000 1.000000 0.000000
vn 0.000000 1.000000 0.000000
vn 0.000000 1.000000 0.000000
vn 0.000000 1.000000 0.000000
vn 0.000000 0.000000 1.000000
vn 0.000000 0.000000 1.000000
vn 0.000000 0.000000 1.000000
vn 0.000000 0.000000 1.000000
vn -0.000000 0.000000 -1.000000
vn 0.000000 0.000000 -1.000000
vn 0.000000 0.000000 -1.000000
vn -0.000000 0.000000 -1.000000
vn 0.000000 -1.000000 0.000000
vn 0.000000 -1.000000 0.000000
vn 0.000000 -1.000000 0.000000
vn 0.000000 -1.000000 0.000000
vn 0.000000 0.000000 1.000000
vn 0.000000 0.000000 1.000000
vn -1.000000 -0.000198 0.000000
vn -1.000000 -0.000198 0.000000
vn -1.000000 -0.000198 0.000000
vn -1.000000 -0.000198 0.000000
vn 0.000000 0.000000 -1.000000
vn 0.000000 0.000000 -1.000000
vn 1.000000 0.000000 0.000000
vn 1.000000 0.000000 0.000000
vn 1.000000 0.000000 0.000000
vn 1.000000 0.000000 0.000000
vn -1.000000 0.000000 0.000000
vn -1.000000 0.000000 0.000000
vn -1.000000 0.000000 0.000000
vn -1.000000 0.000000 0.000000
vn -0.000000 0.000000 -1.000000
vn -0.000000 0.000000 -1.000000
vn 1.000000 -0.000198 0.000000
vn 1.000000 -0.000198 0.000000
vn 1.000000 -0.000198 0.000000
vn 1.000000 -0.000198 0.000000
vn 0.000000 0.000000 1.000000
vn 0.000000 0.000000 1.000000
vn 0.000000 1.000000 0.000000
vn 0.000000 1.000000 0.000000
vn 0.000000 1.000000 0.000000
vn 0.000000 1.000000 0.000000
s off
g ExitDoorFrame
usemtl lambert34SG
f 1/31/1 2/32/2 4/29/3 3/4/4
s 1
f 2/32/5 1/31/6 6/22/7 5/6/8
s 2
f 3/4/9 4/29/10 8/28/11 7/8/12
s off
f 5/26/13 6/21/14 7/24/15 8/27/16
s 1
f 10/35/17 9/10/18 2/2/5 5/36/8
s off
f 5/25/19 8/39/20 11/40/21 10/17/22
s 2
f 4/3/10 12/12/23 11/11/24 8/7/11
s off
f 9/10/25 12/12/26 4/3/27 2/2/28
f 14/13/29 13/14/30 1/1/31 3/30/32
s 2
f 15/38/33 14/13/34 3/30/9 7/23/12
s off
f 7/37/35 6/34/36 16/33/37 15/20/38
s 1
f 1/1/6 13/14/39 16/16/40 6/5/7
s off
f 10/9/41 11/19/42 15/15/43 16/18/44
