# This file uses meters as units for non-parametric coordinates.

mtllib ExitDoorWall.mtl
g default
v 0.000000 0.000000 0.000000
v 12.000000 0.000000 0.000000
v 0.000000 12.000000 0.000000
v 12.000000 12.000000 0.000000
v 0.000000 6.907898 0.000000
v 12.000000 6.907898 0.000000
v 3.013855 0.000000 0.000000
v 3.013855 6.647766 0.000000
v 0.540001 12.000000 0.000000
v 8.986145 0.000000 0.000000
v 8.986145 6.647766 0.000000
v 11.459961 12.000000 0.000000
vt 0.001211 0.001171
vt 0.998829 0.001211
vt 0.001171 0.998789
vt 0.998789 0.998829
vt 0.001188 0.575456
vt 0.998806 0.575496
vt 0.251767 0.001181
vt 0.251745 0.553840
vt 0.046064 0.998791
vt 0.748273 0.001201
vt 0.748250 0.553860
vt 0.953896 0.998827
vn 0.000000 0.000000 1.000000
vn 0.000000 0.000000 1.000000
vn 0.000000 0.000000 1.000000
vn 0.000000 0.000000 1.000000
vn 0.000000 0.000000 1.000000
vn 0.000000 0.000000 1.000000
vn 0.000000 0.000000 1.000000
vn 0.000000 0.000000 1.000000
vn 0.000000 0.000000 1.000000
vn 0.000000 0.000000 1.000000
vn 0.000000 0.000000 1.000000
vn 0.000000 0.000000 1.000000
s 1
g ExitDoorWall
usemtl lambert15SG
f 5/5/1 8/8/2 9/9/3 3/3/4
f 1/1/5 7/7/6 8/8/2 5/5/1
f 12/12/7 9/9/3 8/8/2 11/11/8
f 11/11/8 10/10/9 2/2/10 6/6/11
f 12/12/7 11/11/8 6/6/11 4/4/12
