# This file uses meters as units for non-parametric coordinates.

mtllib FullChannel.mtl
g default
v 0.000000 0.000000 12.000000
v 12.000000 0.000000 12.000000
v 0.000000 0.000000 0.000000
v 12.000000 0.000000 0.000000
v 7.799988 -0.279984 0.000000
v 4.200012 -0.279984 0.000000
v 4.200012 -0.279984 12.000000
v 7.799988 -0.279984 12.000000
v 4.200012 -0.150765 12.000000
v 4.049225 0.000000 12.000000
v 7.950745 0.000000 12.000000
v 7.799988 -0.150765 12.000000
v 4.049225 0.000000 0.000000
v 4.200012 -0.150765 0.000000
v 7.799988 -0.150765 0.000000
v 7.950745 0.000000 0.000000
vt 0.632275 1.000000
vt 0.347454 1.000000
vt 0.347454 0.050599
vt 0.632275 0.050599
vt 0.320362 0.050599
vt 0.337231 0.050599
vt 0.337231 1.000000
vt 0.320362 1.000000
vt 0.642498 0.050599
vt 0.659367 0.050599
vt 0.659367 1.000000
vt 0.642498 1.000000
vt 0.000000 1.000000
vt 0.000000 0.050599
vt 0.979729 0.050599
vt 0.979729 1.000000
vn 0.000000 1.000000 0.000000
vn 0.000000 1.000000 0.000000
vn 0.000000 1.000000 0.000000
vn 0.000000 1.000000 0.000000
vn 0.707055 0.707158 0.000000
vn 0.707055 0.707158 0.000000
vn 0.707055 0.707158 0.000000
vn 0.707055 0.707158 0.000000
vn -0.707127 0.707087 0.000000
vn -0.707127 0.707087 0.000000
vn -0.707127 0.707087 0.000000
vn -0.707127 0.707087 0.000000
vn 0.000000 1.000000 0.000000
vn 0.000000 1.000000 0.000000
vn 0.000000 1.000000 0.000000
vn 0.000000 1.000000 0.000000
vn 0.000000 1.000000 0.000000
vn 0.000000 1.000000 0.000000
vn 0.000000 1.000000 0.000000
vn 0.000000 1.000000 0.000000
vn -1.000000 0.000000 0.000000
vn -1.000000 0.000000 0.000000
vn -1.000000 0.000000 0.000000
vn -1.000000 0.000000 0.000000
vn 1.000000 0.000000 0.000000
vn 1.000000 0.000000 0.000000
vn 1.000000 0.000000 0.000000
vn 1.000000 0.000000 0.000000
s off
g FullChannel
usemtl lambert4SG
f 5/1/1 6/2/2 7/3/3 8/4/4
f 10/5/5 9/6/6 14/7/7 13/8/8
f 12/9/9 11/10/10 16/11/11 15/12/12
f 10/5/13 13/8/14 3/13/15 1/14/16
f 2/15/17 4/16/18 16/11/19 11/10/20
f 12/9/21 15/12/22 5/1/23 8/4/24
f 7/3/25 6/2/26 14/7/27 9/6/28
