# This file uses meters as units for non-parametric coordinates.

mtllib GearDropper.mtl
g default
v 0.053230 -1.272179 0.946770
v 0.946770 -1.272179 0.946770
v 0.000000 0.000000 1.000000
v 1.000000 0.000000 1.000000
v 0.000000 0.000000 0.000000
v 1.000000 0.000000 0.000000
v 0.053230 -1.272179 0.053230
v 0.946770 -1.272179 0.053230
v 0.000000 -0.600000 1.000000
v 0.000000 -0.599998 0.000000
v 1.000000 -0.599998 0.000000
v 1.000000 -0.600000 1.000000
v -0.167999 -1.272179 1.167999
v 1.167999 -1.272179 1.167999
v 1.167999 -0.600000 1.167999
v -0.167999 -0.600000 1.167999
v -0.167999 -0.599998 -0.167999
v 1.167999 -0.599998 -0.167999
v 1.167999 -1.272179 -0.167999
v -0.167999 -1.272179 -0.167999
v 0.053230 -0.767431 0.053230
v 0.946770 -0.767431 0.053230
v 0.946770 -0.767431 0.946770
v 0.053230 -0.767431 0.946770
vt 0.640915 0.492390
vt 0.640915 0.279593
vt 0.806017 0.279593
vt 0.806017 0.492390
vt 0.806017 0.709511
vt 0.806017 0.009802
vt 0.640915 0.009802
vt 0.640915 0.709511
vt 0.177991 0.692700
vt 0.486802 0.095825
vt 0.486802 0.279593
vt 0.486802 0.492390
vt 0.840482 0.709511
vt 0.840482 0.492390
vt 0.973450 0.492390
vt 0.973450 0.709511
vt 0.973450 0.919646
vt 0.840482 0.064071
vt 0.840482 0.279593
vt 0.973450 0.279593
vt 0.597388 0.492390
vt 0.597388 0.279593
vt 0.597388 0.095825
vt 0.597388 0.709511
vt 0.486802 0.709511
vt 0.371012 0.692669
vt 0.370981 0.499648
vt 0.486802 0.894305
vt 0.177960 0.499679
vt 0.597388 0.894305
vt 0.806017 0.975178
vt 0.640915 0.975178
vt 0.840482 0.919646
vt 0.973450 0.064071
vn 0.000000 0.000000 1.000000
vn 0.000000 0.000000 1.000000
vn 0.000000 0.000000 1.000000
vn 0.000000 0.000000 1.000000
vn 0.000000 0.000000 -1.000000
vn 0.000000 0.000000 -1.000000
vn 0.000000 0.000000 -1.000000
vn 0.000000 0.000000 -1.000000
vn 0.000000 -1.000000 0.000000
vn 0.000000 -1.000000 0.000000
vn 0.000000 -1.000000 0.000000
vn 0.000000 -1.000000 0.000000
vn 1.000000 0.000000 0.000000
vn 1.000000 0.000000 0.000000
vn 1.000000 0.000000 0.000000
vn 1.000000 0.000000 0.000000
vn -1.000000 0.000000 0.000000
vn -1.000000 0.000000 0.000000
vn -1.000000 0.000000 0.000000
vn -1.000000 0.000000 0.000000
vn -1.000000 0.000000 0.000000
vn -1.000000 0.000000 0.000000
vn -1.000000 0.000000 0.000000
vn -1.000000 0.000000 0.000000
vn 0.000000 0.000000 -1.000000
vn 0.000000 0.000000 -1.000000
vn 0.000000 0.000000 -1.000000
vn 0.000000 0.000000 -1.000000
vn 1.000000 0.000000 0.000000
vn 1.000000 0.000000 0.000000
vn 1.000000 0.000000 0.000000
vn 1.000000 0.000000 0.000000
vn 0.000000 0.000000 1.000000
vn 0.000000 0.000000 1.000000
vn 0.000000 0.000000 1.000000
vn 0.000000 0.000000 1.000000
vn 0.000000 -1.000000 -0.000000
vn 0.000000 -1.000000 -0.000000
vn 0.000000 -1.000000 -0.000000
vn 0.000000 -1.000000 -0.000000
vn 0.000000 1.000000 0.000001
vn 0.000000 1.000000 0.000001
vn 0.000000 1.000000 0.000001
vn 0.000000 1.000000 0.000001
vn 0.000000 1.000000 0.000001
vn 0.000000 1.000000 0.000001
vn 0.000000 1.000000 0.000001
vn 0.000000 1.000000 0.000001
vn 0.000000 -1.000000 0.000000
vn 0.000000 -1.000000 0.000000
vn 0.000000 -1.000000 0.000000
vn 0.000000 -1.000000 0.000000
vn 0.000000 0.000000 1.000000
vn 0.000000 0.000000 1.000000
vn 0.000000 0.000000 1.000000
vn 0.000000 0.000000 1.000000
vn -1.000000 0.000000 0.000000
vn -1.000000 0.000000 0.000000
vn -1.000000 0.000000 0.000000
vn -1.000000 0.000000 0.000000
vn 0.000000 0.000000 -1.000000
vn 0.000000 0.000000 -1.000000
vn 0.000000 0.000000 -1.000000
vn 0.000000 0.000000 -1.000000
vn 1.000000 0.000000 0.000000
vn 1.000000 0.000000 0.000000
vn 1.000000 0.000000 0.000000
vn 1.000000 0.000000 0.000000
s off
g GearDropper
usemtl lambert31SG
f 13/1/1 14/2/2 15/3/3 16/4/4
f 17/5/5 18/31/6 19/32/7 20/8/8
f 21/9/9 22/29/10 23/27/11 24/26/12
f 14/2/13 19/7/14 18/6/15 15/3/16
f 20/8/17 13/1/18 16/4/19 17/5/20
f 10/13/21 9/14/22 3/15/23 5/16/24
f 5/16/25 6/17/26 11/33/27 10/13/28
f 12/19/29 11/18/30 6/34/31 4/20/32
f 9/14/33 12/19/34 4/20/35 3/15/36
s 1
f 1/21/37 2/22/38 14/2/39 13/1/40
s 2
f 12/19/41 9/14/42 16/4/43 15/3/44
f 10/13/45 11/33/46 18/31/47 17/5/48
s 1
f 8/30/49 7/24/50 20/8/51 19/32/52
f 2/22/38 8/23/49 19/7/52 14/2/39
s 2
f 11/18/46 12/19/41 15/3/44 18/6/47
s 1
f 7/24/50 1/21/37 13/1/40 20/8/51
s 2
f 9/14/42 10/13/45 17/5/48 16/4/43
s off
f 7/24/53 8/30/54 22/28/55 21/25/56
f 8/23/57 2/22/58 23/11/59 22/10/60
f 2/22/61 1/21/62 24/12/63 23/11/64
f 1/21/65 7/24/66 21/25/67 24/12/68
