# This file uses meters as units for non-parametric coordinates.

mtllib HalfChannel.mtl
g default
v 0.000000 0.000000 12.000000
v 12.000000 0.000000 12.000000
v 0.000000 0.000000 0.000000
v 12.000000 0.000000 0.000000
v 4.200012 0.000000 0.000000
v 7.799988 0.000000 0.000000
v 0.000000 0.000000 7.200012
v 12.000000 0.000000 7.200012
v 4.200012 -0.279984 7.200012
v 4.200012 -0.279984 12.000000
v 7.799988 -0.279984 7.200012
v 7.799988 -0.279984 12.000000
v 4.200012 -0.150765 12.000000
v 4.049225 0.000000 12.000000
v 4.049225 0.000000 7.049255
v 4.200012 -0.150765 7.200012
v 7.950745 0.000000 12.000000
v 7.799988 -0.150765 12.000000
v 7.950745 0.000000 7.049255
v 7.799988 -0.150765 7.200012
vt 0.348049 0.418597
vt 0.348049 0.048600
vt 0.627605 0.048600
vt 0.627605 0.418597
vt 0.330524 0.048600
vt 0.339379 0.048600
vt 0.339379 0.424528
vt 0.330524 0.435493
vt 0.636233 0.424528
vt 0.642909 0.435493
vt 0.636233 0.048600
vt 0.642909 0.048600
vt 0.004523 0.435493
vt 0.330524 1.000000
vt 0.004523 1.000000
vt 0.642909 1.000000
vt 0.968645 0.435493
vt 0.968645 1.000000
vt 0.004523 0.048600
vt 0.968645 0.048600
vn 0.000000 1.000000 0.000000
vn 0.000000 1.000000 0.000000
vn 0.000000 1.000000 0.000000
vn 0.000000 1.000000 0.000000
vn 0.707055 0.707158 0.000000
vn 0.707055 0.707158 0.000000
vn 0.707055 0.707158 0.000000
vn 0.707055 0.707158 0.000000
vn 0.000000 0.707087 0.707127
vn 0.000000 0.707087 0.707127
vn 0.000000 0.707087 0.707127
vn 0.000000 0.707087 0.707127
vn -0.707126 0.707088 0.000000
vn -0.707126 0.707088 0.000000
vn -0.707126 0.707088 0.000000
vn -0.707126 0.707088 0.000000
vn 0.000000 1.000000 0.000000
vn 0.000000 1.000000 -0.000000
vn 0.000000 1.000000 -0.000000
vn 0.000000 1.000000 0.000000
vn 0.000000 1.000000 -0.000000
vn 0.000000 1.000000 -0.000000
vn 0.000000 1.000000 0.000000
vn 0.000000 1.000000 0.000000
vn 0.000000 1.000000 0.000000
vn 0.000000 1.000000 0.000000
vn 0.000000 1.000000 0.000000
vn 0.000000 1.000000 0.000000
vn 0.000000 0.000000 1.000000
vn 0.000000 0.000000 1.000000
vn 0.000000 0.000000 1.000000
vn 0.000000 0.000000 1.000000
vn 1.000000 0.000000 0.000000
vn 1.000000 0.000000 0.000000
vn 1.000000 0.000000 0.000000
vn 1.000000 0.000000 0.000000
vn -1.000000 0.000000 0.000000
vn -1.000000 0.000000 0.000000
vn -1.000000 0.000000 0.000000
vn -1.000000 0.000000 0.000000
s off
g HalfChannel
usemtl lambert5SG
f 9/1/1 10/2/2 12/3/3 11/4/4
f 14/5/5 13/6/6 16/7/7 15/8/8
f 15/8/9 16/7/10 20/9/11 19/10/12
f 18/11/13 17/12/14 19/10/15 20/9/16
s 1
f 7/13/17 15/8/18 5/14/19 3/15/20
f 15/8/18 19/10/21 6/16/22 5/14/19
f 6/16/22 19/10/21 8/17/23 4/18/24
f 1/19/25 14/5/26 15/8/18 7/13/17
f 8/17/23 19/10/21 17/12/27 2/20/28
s off
f 20/9/29 16/7/30 9/1/31 11/4/32
f 16/7/33 13/6/34 10/2/35 9/1/36
f 18/11/37 20/9/38 11/4/39 12/3/40
