# This file uses meters as units for non-parametric coordinates.

mtllib Pylon.mtl
g default
v 0.000001 0.893997 1.199951
v 2.399994 0.893997 1.199951
v 0.000001 11.611206 1.199951
v 2.399994 11.611206 1.199951
v 0.000001 11.611206 -0.000046
v 2.399994 11.611206 -0.000046
v 0.000001 0.893997 -0.000046
v 2.399994 0.893997 -0.000046
v 1.919998 0.893997 1.199951
v 1.919998 11.611206 1.199951
v 0.480000 0.893997 1.199951
v 0.480000 11.611206 1.199951
v 1.838440 2.010834 0.565910
v 1.838440 10.494385 0.565910
v 0.561558 2.010834 0.565910
v 0.561558 10.494385 0.565910
v 0.000001 12.505249 1.199951
v 0.480000 12.505249 1.199951
v 0.000001 12.505249 -0.000046
v 1.919998 12.505249 1.199951
v 2.399994 12.505249 1.199951
v 2.399994 12.505249 -0.000046
v -0.000000 0.000000 -0.000046
v 0.480000 -0.000001 1.199951
v -0.000000 0.000000 1.199951
v 1.919998 0.000000 1.199951
v 2.399994 0.000000 -0.000046
v 2.399994 0.000000 1.199951
v -0.512398 11.692749 1.712357
v 0.480000 11.692749 1.712357
v 0.480000 12.423584 1.712357
v -0.512398 12.423584 1.712357
v -0.512398 11.692749 -0.000045
v -0.512398 12.423584 -0.000045
v 1.919998 11.692749 1.712357
v 1.919998 12.423584 1.712357
v 2.912415 11.692749 1.712357
v 2.912415 12.423584 1.712357
v 2.912415 11.692749 -0.000045
v 2.912415 12.423584 -0.000045
v -0.512398 0.812401 1.712357
v 0.480000 0.812401 1.712357
v -0.512402 0.081600 1.712357
v 0.480000 0.081599 1.712357
v -0.512398 0.812401 -0.000045
v -0.512402 0.081600 -0.000045
v 1.919998 0.812401 1.712357
v 1.919998 0.081600 1.712357
v 2.912415 0.812401 -0.000045
v 2.912415 0.812401 1.712357
v 2.912415 0.081600 1.712357
v 2.912415 0.081600 -0.000045
vt 0.156667 0.674725
vt 0.200543 0.725241
vt 0.324352 0.587988
vt 0.268324 0.549600
vt 0.376268 0.871726
vt 0.465312 0.965878
vt 0.117296 0.132608
vt 0.488260 0.746261
vt 0.117296 0.132608
vt 0.179474 0.455337
vt 0.185441 0.238532
vt 0.793251 0.782960
vt 0.445557 0.694706
vt 0.319359 0.834583
vt 0.711308 0.874444
vt 0.103497 0.330015
vt 0.239435 0.593145
vt 0.297389 0.632912
vt 0.242005 0.693074
vt 0.199253 0.643633
vt 0.138771 0.490623
vt 0.081981 0.550542
vt 0.402554 0.728220
vt 0.347622 0.788055
vt 0.445652 0.777506
vt 0.405294 0.828063
vt 0.562785 0.870567
vt 0.505952 0.930538
vt 0.242028 0.693113
vt 0.199236 0.643666
vt 0.239407 0.593165
vt 0.297346 0.632902
vt 0.081974 0.550552
vt 0.138766 0.490632
vt 0.347589 0.788040
vt 0.402581 0.728249
vt 0.505965 0.930533
vt 0.405277 0.828074
vt 0.445643 0.777526
vt 0.562791 0.870559
vt 0.200531 0.725211
vt 0.156674 0.674696
vt 0.051777 0.595347
vt 0.319379 0.834583
vt 0.376279 0.871720
vt 0.465290 0.965876
vt 0.268299 0.549613
vt 0.324321 0.587986
vt 0.179476 0.455352
vt 0.445566 0.694724
vt 0.488258 0.746276
vt 0.593053 0.825787
vt 0.346167 0.038152
vt 0.953886 0.582684
vt 0.798086 0.962704
vt 0.992857 0.700164
vt 0.225130 0.012261
vt 0.006251 0.253441
vt 0.953886 0.582683
vt 0.346167 0.038153
vt 0.225129 0.012261
vt 0.890497 0.859534
vt 0.098662 0.150271
vt 0.992858 0.700163
vt 0.194320 0.046646
vt 0.962048 0.734548
vt 0.885024 0.820511
vt 0.051764 0.595351
vt 0.194320 0.046646
vt 0.593055 0.825804
vt 0.962048 0.734549
vt 0.885024 0.820511
vn 0.000000 0.000000 1.000000
vn 0.000000 0.000000 1.000000
vn 0.000000 0.000000 1.000000
vn 0.000000 0.000000 1.000000
vn 1.000000 0.000000 0.000000
vn 1.000000 0.000000 0.000000
vn 1.000000 0.000000 0.000000
vn 1.000000 0.000000 0.000000
vn -1.000000 0.000000 0.000000
vn -1.000000 0.000000 0.000000
vn -1.000000 0.000000 0.000000
vn -1.000000 0.000000 0.000000
vn 0.000000 0.000000 1.000000
vn 0.000000 0.000000 1.000000
vn 0.000000 0.000000 1.000000
vn 0.000000 0.000000 1.000000
vn 0.000000 -0.072014 0.997404
vn 0.000000 -0.072014 0.997404
vn 0.000000 0.072014 0.997404
vn 0.000000 0.072014 0.997404
vn -0.991828 0.000000 0.127581
vn -0.991828 0.000000 0.127581
vn -0.991828 0.000000 0.127581
vn -0.991828 0.000000 0.127581
vn 0.000000 -0.765246 0.643739
vn 0.000000 -0.765245 0.643739
vn 0.991828 0.000000 0.127581
vn 0.991828 0.000000 0.127581
vn 0.991828 0.000000 0.127581
vn 0.991828 0.000000 0.127581
vn 0.000000 0.493700 0.869632
vn 0.000000 0.493700 0.869632
vn 0.000000 0.000000 1.000000
vn 0.000000 0.000000 1.000000
vn 0.000000 0.000000 1.000000
vn 0.000000 0.000000 1.000000
vn -1.000000 0.000000 0.000000
vn -1.000000 0.000000 0.000000
vn -1.000000 0.000000 0.000000
vn -1.000000 0.000000 0.000000
vn 0.000000 0.000000 1.000000
vn 0.000000 0.000000 1.000000
vn 0.000000 0.000000 1.000000
vn 0.000000 0.000000 1.000000
vn 1.000000 0.000000 0.000000
vn 1.000000 0.000000 0.000000
vn 1.000000 0.000000 0.000000
vn 1.000000 0.000000 0.000000
vn 0.000000 0.000000 1.000000
vn 0.000000 0.000000 1.000000
vn 0.000000 0.000000 1.000000
vn 0.000000 0.000000 1.000000
vn -1.000000 0.000005 0.000000
vn -1.000000 0.000005 0.000000
vn -1.000000 0.000005 0.000000
vn -1.000000 0.000005 0.000000
vn -0.000000 0.000000 1.000000
vn -0.000000 0.000000 1.000000
vn 1.000000 0.000000 0.000000
vn 1.000000 0.000000 0.000000
vn 1.000000 0.000000 0.000000
vn 1.000000 0.000000 0.000000
vn 0.000000 0.000000 1.000000
vn 0.000000 0.000000 1.000000
vn -0.104967 -0.993059 0.053067
vn 0.000000 -0.987573 0.157160
vn -0.104967 -0.993059 0.053068
vn 0.000000 0.987537 0.157389
vn -0.105122 0.993038 0.053145
vn -0.105121 0.993038 0.053146
vn 0.000000 0.987537 0.157389
vn -0.157162 -0.987573 0.000000
vn -0.157162 -0.987573 0.000000
vn -0.157391 0.987536 0.000000
vn -0.157391 0.987536 0.000000
vn 0.000000 0.987537 0.157389
vn 0.000000 0.987537 0.157389
vn 0.104963 -0.993059 0.053066
vn 0.104965 -0.993059 0.053064
vn 0.000000 -0.987573 0.157160
vn 0.105118 0.993039 0.053145
vn 0.105120 0.993039 0.053143
vn 0.157155 -0.987574 0.000000
vn 0.157155 -0.987574 0.000000
vn 0.157385 0.987537 0.000000
vn 0.157385 0.987537 0.000000
vn 0.000000 0.987557 0.157260
vn -0.105035 0.993050 0.053101
vn -0.105034 0.993050 0.053102
vn 0.000000 0.987557 0.157260
vn -0.105040 -0.993049 0.053104
vn 0.000000 -0.987556 0.157267
vn 0.000000 -0.987556 0.157267
vn -0.105039 -0.993049 0.053104
vn -0.157262 0.987557 0.000000
vn -0.157262 0.987557 0.000000
vn -0.157269 -0.987556 0.000000
vn -0.157269 -0.987556 0.000000
vn 0.000000 0.987557 0.157260
vn 0.000000 0.987557 0.157260
vn 0.157256 0.987558 0.000000
vn 0.105031 0.993050 0.053101
vn 0.105033 0.993050 0.053099
vn 0.157256 0.987558 0.000000
vn 0.105036 -0.993050 0.053103
vn 0.157263 -0.987557 0.000000
vn 0.157263 -0.987557 0.000000
vn 0.105038 -0.993050 0.053102
vn 0.000000 -0.987556 0.157267
vn 0.000000 -0.987556 0.157267
s off
g PylonDetail
usemtl lambert19SG
f 1/69/1 11/57/2 12/56/3 3/71/4
f 2/66/5 8/67/6 6/7/7 4/65/8
f 7/9/9 1/69/10 3/71/11 5/72/12
f 10/61/13 9/64/14 2/66/15 4/65/16
s 1
f 14/12/17 16/15/18 15/16/19 13/11/20
s off
f 9/64/21 10/61/22 14/60/23 13/59/24
s 1
f 14/12/17 10/62/25 12/55/26 16/15/18
s off
f 12/56/27 11/57/28 15/53/29 16/54/30
s 1
f 13/11/20 15/16/19 11/58/31 9/63/32
s 2
f 29/17/33 30/18/34 31/19/35 32/20/36
s off
f 33/21/37 29/17/38 32/20/39 34/22/40
s 2
f 35/23/41 37/25/42 38/26/43 36/24/44
s off
f 37/25/45 39/27/46 40/28/47 38/26/48
s 2
f 36/24/44 31/19/35 30/18/34 35/23/41
s 3
f 42/29/49 41/30/50 43/31/51 44/32/52
s off
f 41/30/53 45/33/54 46/34/55 43/31/56
s 3
f 48/36/57 47/35/58 42/29/49 44/32/52
s off
f 49/37/59 50/38/60 51/39/61 52/40/62
s 3
f 50/38/63 47/35/58 48/36/57 51/39/64
s 1
f 3/4/65 12/3/26 30/18/66 29/17/67
s 4
f 18/41/68 17/42/69 32/20/70 31/19/71
s 1
f 5/10/72 3/4/65 29/17/67 33/21/73
s 4
f 17/42/69 19/43/74 34/22/75 32/20/70
f 36/24/76 20/44/77 18/41/68 31/19/71
s 1
f 10/13/25 4/8/78 37/25/79 35/23/80
s 4
f 21/45/81 20/44/77 36/24/76 38/26/82
s 1
f 4/8/78 6/70/83 39/27/84 37/25/79
s 4
f 22/46/85 21/45/81 38/26/82 40/28/86
s 1
f 35/23/80 30/18/66 12/3/26 10/13/25
s 6
f 11/2/87 1/1/88 41/30/89 42/29/90
s 7
f 25/47/91 24/48/92 44/32/93 43/31/94
s 6
f 1/1/88 7/68/95 45/33/96 41/30/89
s 7
f 23/49/97 25/47/91 43/31/94 46/34/98
s 6
f 47/35/99 9/14/100 11/2/87 42/29/90
f 8/6/101 2/5/102 50/38/103 49/37/104
s 7
f 28/51/105 27/52/106 52/40/107 51/39/108
s 6
f 2/5/102 9/14/100 47/35/99 50/38/103
s 7
f 26/50/109 28/51/105 51/39/108 48/36/110
f 48/36/110 44/32/93 24/48/92 26/50/109
