# This file uses meters as units for non-parametric coordinates.

mtllib RecieverConnector.mtl
g default
v 0.127014 0.073320 0.051359
v 0.073303 0.126993 0.051359
v 0.000000 0.146641 0.051359
v -0.073303 0.126993 0.051359
v -0.127014 0.073320 0.051359
v -0.146667 0.000000 0.051359
v -0.127014 -0.073320 0.051359
v -0.073303 -0.126993 0.051359
v 0.000000 -0.146641 0.051359
v 0.073303 -0.126993 0.051359
v 0.127014 -0.073320 0.051359
v 0.146667 0.000000 0.051359
v 0.221008 0.127613 -0.000000
v 0.127625 0.221027 -0.000000
v 0.000000 0.255226 -0.000000
v -0.127625 0.221027 -0.000000
v -0.221008 0.127613 -0.000000
v -0.255249 0.000000 -0.000000
v -0.221008 -0.127613 -0.000000
v -0.127625 -0.221027 -0.000000
v 0.000000 -0.255226 -0.000000
v 0.127625 -0.221027 -0.000000
v 0.221008 -0.127613 -0.000000
v 0.255249 0.000000 -0.000000
v 0.172607 0.099659 0.099234
v 0.099670 0.172611 0.099234
v 0.000000 0.199318 0.099234
v -0.099670 0.172611 0.099234
v -0.172607 0.099659 0.099234
v -0.199341 0.000000 0.099234
v -0.172607 -0.099659 0.099234
v -0.099670 -0.172611 0.099234
v 0.000000 -0.199318 0.099234
v 0.099670 -0.172611 0.099234
v 0.172607 -0.099659 0.099234
v 0.199341 0.000000 0.099234
v 0.126526 0.073040 0.072754
v 0.073059 0.126507 0.072754
v 0.000000 0.146080 0.072754
v -0.073059 0.126507 0.072754
v -0.126526 0.073040 0.072754
v -0.146057 0.000000 0.072754
v -0.126526 -0.073040 0.072754
v -0.073059 -0.126507 0.072754
v 0.000000 -0.146080 0.072754
v 0.073059 -0.126507 0.072754
v 0.126526 -0.073040 0.072754
v 0.146057 0.000000 0.072754
v 0.126526 0.073040 0.024761
v 0.073059 0.126507 0.024761
v 0.000000 0.146080 0.024761
v -0.073059 0.126507 0.024761
v -0.126526 0.073040 0.024761
v -0.146057 0.000000 0.024761
v -0.126526 -0.073040 0.024761
v -0.073059 -0.126507 0.024761
v 0.000000 -0.146080 0.024761
v 0.073059 -0.126507 0.024761
v 0.126526 -0.073040 0.024761
v 0.146057 0.000000 0.024761
v 0.000000 0.000000 0.095753
vt 0.658294 0.523384
vt 0.593061 0.571725
vt 0.512396 0.580973
vt 0.437914 0.548650
vt 0.389573 0.483416
vt 0.380325 0.402751
vt 0.412649 0.328270
vt 0.477883 0.279929
vt 0.558547 0.270681
vt 0.633029 0.303004
vt 0.681370 0.368238
vt 0.690618 0.448903
vt 0.993167 0.508491
vt 0.984482 0.643762
vt 0.867147 0.620272
vt 0.873632 0.516147
vt 0.940334 0.774142
vt 0.832518 0.721024
vt 0.009218 0.263594
vt 0.093540 0.154864
vt 0.177595 0.239748
vt 0.112481 0.323208
vt 0.202729 0.073893
vt 0.261538 0.178331
vt 0.327876 0.024437
vt 0.358081 0.140480
vt 0.460755 0.008059
vt 0.460944 0.127964
vt 0.593254 0.025161
vt 0.563666 0.141355
vt 0.717298 0.074490
vt 0.659869 0.179741
vt 0.825276 0.152952
vt 0.743599 0.240718
vt 0.910527 0.255733
vt 0.809666 0.320514
vt 0.967740 0.376622
vt 0.853954 0.414226
vt 0.805612 0.606451
vt 0.811123 0.520135
vt 0.780954 0.684492
vt 0.222341 0.282498
vt 0.168897 0.345914
vt 0.292693 0.232281
vt 0.374290 0.200701
vt 0.461518 0.190338
vt 0.548716 0.201920
vt 0.630381 0.234717
vt 0.701415 0.286681
vt 0.757383 0.354567
vt 0.794759 0.434104
vt 0.755120 0.597885
vt 0.760891 0.523201
vt 0.732928 0.672121
vt 0.254976 0.320593
vt 0.203894 0.378402
vt 0.316145 0.276569
vt 0.386220 0.249317
vt 0.461046 0.240380
vt 0.535874 0.250286
vt 0.605979 0.278406
vt 0.666969 0.322979
vt 0.715022 0.381209
vt 0.747075 0.449414
vt 0.535472 0.425827
vn 0.250874 0.144912 0.957112
vn 0.144869 0.250955 0.957097
vn 0.000000 0.000000 1.000000
vn 0.000000 0.289750 0.957102
vn -0.144869 0.250955 0.957097
vn -0.250874 0.144912 0.957112
vn -0.289702 0.000000 0.957117
vn -0.250874 -0.144912 0.957112
vn -0.144869 -0.250955 0.957097
vn 0.000000 -0.289750 0.957102
vn 0.144869 -0.250955 0.957097
vn 0.250874 -0.144912 0.957112
vn 0.289702 0.000000 0.957117
vn 0.754527 0.435685 0.490783
vn 0.435647 0.754514 0.490837
vn 0.435654 0.754510 0.490837
vn 0.754532 0.435677 0.490783
vn 0.000000 0.871243 0.490851
vn 0.000000 0.871243 0.490851
vn -0.435647 0.754514 0.490837
vn -0.435653 0.754510 0.490837
vn -0.754527 0.435685 0.490783
vn -0.754532 0.435677 0.490783
vn -0.871255 -0.000000 0.490831
vn -0.871255 -0.000000 0.490831
vn -0.754527 -0.435685 0.490783
vn -0.754532 -0.435677 0.490783
vn -0.435647 -0.754514 0.490837
vn -0.435654 -0.754510 0.490837
vn 0.000000 -0.871243 0.490851
vn 0.000000 -0.871243 0.490851
vn 0.435647 -0.754514 0.490837
vn 0.435653 -0.754510 0.490837
vn 0.754527 -0.435685 0.490783
vn 0.754532 -0.435677 0.490783
vn 0.871255 0.000000 0.490831
vn 0.871255 0.000000 0.490831
vn -0.222673 -0.385721 0.895342
vn -0.222690 -0.385711 0.895341
vn -0.385707 -0.222620 0.895360
vn -0.385688 -0.222654 0.895360
vn 0.000000 -0.445351 0.895356
vn 0.000000 -0.445351 0.895356
vn 0.222673 -0.385721 0.895341
vn 0.222690 -0.385711 0.895341
vn 0.385688 -0.222654 0.895360
vn 0.385707 -0.222620 0.895360
vn 0.445271 0.000000 0.895396
vn 0.445271 0.000000 0.895396
vn 0.385688 0.222654 0.895360
vn 0.385707 0.222620 0.895360
vn 0.222673 0.385721 0.895342
vn 0.222690 0.385711 0.895341
vn 0.000000 0.445351 0.895356
vn 0.000000 0.445351 0.895356
vn -0.222673 0.385721 0.895341
vn -0.222690 0.385711 0.895341
vn -0.385688 0.222654 0.895360
vn -0.385707 0.222620 0.895360
vn -0.445271 0.000000 0.895396
vn -0.445271 0.000000 0.895396
vn -0.866146 -0.499791 0.000000
vn -0.499950 -0.866054 0.000000
vn -0.499950 -0.866054 0.000000
vn -0.866146 -0.499791 0.000000
vn 0.000000 -1.000000 0.000000
vn 0.000000 -1.000000 0.000000
vn 0.499950 -0.866054 0.000000
vn 0.499950 -0.866054 0.000000
vn 0.866146 -0.499791 0.000000
vn 0.866146 -0.499791 0.000000
vn 1.000000 0.000000 0.000000
vn 1.000000 0.000000 0.000000
vn 0.866146 0.499791 0.000000
vn 0.866146 0.499791 0.000000
vn 0.499950 0.866054 0.000000
vn 0.499950 0.866054 0.000000
vn 0.000000 1.000000 0.000000
vn 0.000000 1.000000 0.000000
vn -0.499950 0.866054 0.000000
vn -0.499950 0.866054 0.000000
vn -0.866146 0.499791 0.000000
vn -0.866146 0.499791 0.000000
vn -1.000000 0.000000 0.000000
vn -1.000000 0.000000 0.000000
s 1
g Reciever_Connector
usemtl lambert30SG
f 1/1/1 2/2/2 61/65/3
f 2/2/2 3/3/4 61/65/3
f 3/3/4 4/4/5 61/65/3
f 4/4/5 5/5/6 61/65/3
f 5/5/6 6/6/7 61/65/3
f 6/6/7 7/7/8 61/65/3
f 7/7/8 8/8/9 61/65/3
f 8/8/9 9/9/10 61/65/3
f 9/9/10 10/10/11 61/65/3
f 10/10/11 11/11/12 61/65/3
f 11/11/12 12/12/13 61/65/3
f 12/12/13 1/1/1 61/65/3
s 2
f 13/13/14 14/14/15 26/15/16 25/16/17
f 14/14/15 15/17/18 27/18/19 26/15/16
f 15/19/18 16/20/20 28/21/21 27/22/19
f 16/20/20 17/23/22 29/24/23 28/21/21
f 17/23/22 18/25/24 30/26/25 29/24/23
f 18/25/24 19/27/26 31/28/27 30/26/25
f 19/27/26 20/29/28 32/30/29 31/28/27
f 20/29/28 21/31/30 33/32/31 32/30/29
f 21/31/30 22/33/32 34/34/33 33/32/31
f 22/33/32 23/35/34 35/36/35 34/34/33
f 23/35/34 24/37/36 36/38/37 35/36/35
f 24/37/36 13/13/14 25/16/17 36/38/37
s 3
f 26/15/38 38/39/39 37/40/40 25/16/41
f 27/18/42 39/41/43 38/39/39 26/15/38
f 28/21/44 40/42/45 39/43/43 27/22/42
f 29/24/46 41/44/47 40/42/45 28/21/44
f 30/26/48 42/45/49 41/44/47 29/24/46
f 31/28/50 43/46/51 42/45/49 30/26/48
f 32/30/52 44/47/53 43/46/51 31/28/50
f 33/32/54 45/48/55 44/47/53 32/30/52
f 34/34/56 46/49/57 45/48/55 33/32/54
f 35/36/58 47/50/59 46/49/57 34/34/56
f 36/38/60 48/51/61 47/50/59 35/36/58
f 25/16/41 37/40/40 48/51/61 36/38/60
s 4
f 37/40/62 38/39/63 50/52/64 49/53/65
f 38/39/63 39/41/66 51/54/67 50/52/64
f 39/43/66 40/42/68 52/55/69 51/56/67
f 40/42/68 41/44/70 53/57/71 52/55/69
f 41/44/70 42/45/72 54/58/73 53/57/71
f 42/45/72 43/46/74 55/59/75 54/58/73
f 43/46/74 44/47/76 56/60/77 55/59/75
f 44/47/76 45/48/78 57/61/79 56/60/77
f 45/48/78 46/49/80 58/62/81 57/61/79
f 46/49/80 47/50/82 59/63/83 58/62/81
f 47/50/82 48/51/84 60/64/85 59/63/83
f 48/51/84 37/40/62 49/53/65 60/64/85
g default
v 0.000000 0.000000 0.135052
v 0.128519 0.000000 0.135052
v 0.000000 3.000000 0.135052
v 0.128519 3.000000 0.135052
v 0.000000 3.000000 0.000000
v 0.128519 3.000000 0.000000
v 0.000000 0.000000 0.000000
v 0.128519 0.000000 0.000000
vt 0.892804 0.921086
vt 0.868733 0.956641
vt 0.038764 0.394774
vt 0.062834 0.359219
vt 0.843440 0.994004
vt 0.013470 0.432137
vt 0.918097 0.883723
vt 0.088128 0.321856
vn 0.000000 0.000000 1.000000
vn 0.000000 0.000000 1.000000
vn 0.000000 0.000000 1.000000
vn 0.000000 0.000000 1.000000
vn 1.000000 0.000000 0.000000
vn 1.000000 0.000000 0.000000
vn 1.000000 0.000000 0.000000
vn 1.000000 0.000000 0.000000
vn -1.000000 0.000000 0.000000
vn -1.000000 0.000000 0.000000
vn -1.000000 0.000000 0.000000
vn -1.000000 0.000000 0.000000
s off
g RecieveirLine
usemtl lambert30SG
f 62/66/86 63/67/87 65/68/88 64/69/89
f 63/67/90 69/70/91 67/71/92 65/68/93
f 68/72/94 62/66/95 64/69/96 66/73/97
