# Blender 3.5.1
# www.blender.org
mtllib Conveyor Belt End.mtl
o Conveyor_Belt_End
v 6.800000 1.893783 6.500000
v 6.800000 2.693815 6.500000
v 8.800000 1.893783 6.500000
v 8.800000 2.693815 6.500000
v 6.800000 1.893783 8.500000
v 6.800000 2.693815 8.500000
v 8.800000 1.893783 8.500000
v 8.800000 2.693815 8.500000
v 8.667564 1.893783 6.500000
v 6.932436 1.893783 6.500000
v 6.932436 2.693815 6.500000
v 8.667564 2.693815 6.500000
v 6.932436 1.893783 8.500000
v 8.667564 1.893783 8.500000
v 8.667564 2.693815 8.500000
v 6.932436 2.693815 8.500000
v 8.800000 2.693799 8.623419
v 8.800000 2.419405 8.897813
v 8.800000 2.657037 8.760616
v 8.800000 2.556602 8.861052
v 8.800000 2.168193 8.897813
v 8.800000 1.893799 8.623419
v 8.800000 2.030996 8.861052
v 8.800000 1.930561 8.760616
v 8.667564 2.168193 8.897813
v 8.667564 1.893799 8.623419
v 8.667564 2.030996 8.861052
v 8.667564 1.930561 8.760616
v 6.932436 2.419405 8.897813
v 6.932436 2.693799 8.623419
v 6.932436 2.556602 8.861052
v 6.932436 2.657037 8.760616
v 6.800000 2.419405 8.897813
v 6.800000 2.693799 8.623419
v 6.800000 2.556602 8.861052
v 6.800000 2.657037 8.760616
v 6.800000 1.893799 8.623419
v 6.800000 2.168193 8.897813
v 6.800000 1.930561 8.760616
v 6.800000 2.030996 8.861052
v 6.932436 1.893799 8.623419
v 6.932436 2.168193 8.897813
v 6.932436 1.930561 8.760616
v 6.932436 2.030996 8.861052
v 8.667564 2.693799 8.623419
v 8.667564 2.419405 8.897813
v 8.667564 2.657037 8.760616
v 8.667564 2.556602 8.861052
v 8.667564 2.896358 6.500000
v 8.800000 2.896358 6.500000
v 8.800000 2.896358 8.500000
v 6.932436 2.896612 8.500000
v 6.800000 2.896612 8.500000
v 6.800000 2.896358 6.500000
v 6.932436 2.896358 6.500000
v 8.667564 2.896358 8.500000
v 8.800000 1.893783 8.331653
v 8.800000 2.693815 8.331852
v 6.800000 1.893783 8.331653
v 6.800000 2.693815 8.331852
v 8.667564 2.693815 8.331852
v 6.932436 2.693815 8.331852
v 8.667564 1.893783 8.331653
v 8.800000 2.896358 8.331852
v 6.800000 2.896358 8.331852
v 8.667564 2.896358 8.331852
v 6.932436 2.896358 8.331852
v 6.800000 1.690545 6.500000
v 8.800000 1.690545 6.500000
v 6.800000 1.690639 8.500000
v 8.800000 1.690639 8.500000
v 8.667564 1.690545 6.500000
v 6.932436 1.690545 6.500000
v 6.932436 1.690639 8.500000
v 8.667564 1.690639 8.500000
v 8.800000 1.690545 8.331852
v 6.800000 1.690545 8.331852
v 8.667564 1.690545 8.331852
v 6.932436 1.690545 8.331852
v 6.932436 1.893783 8.331653
v 8.667564 0.290639 8.500780
v 8.800000 0.290639 8.500780
v 6.800000 0.290639 8.500780
v 6.800000 0.290545 8.332633
v 8.800000 2.896866 8.500000
v 8.667564 2.896866 8.500000
v 8.667564 1.746178 8.801046
v 8.667564 1.690756 8.659294
v 8.800000 1.690756 8.659294
v 8.800000 1.746178 8.801046
v 8.667564 1.897595 8.935172
v 8.800000 1.897595 8.935173
v 8.667564 2.104434 8.985351
v 8.800000 2.104434 8.985351
v 6.932436 2.841419 8.801046
v 6.932436 2.896842 8.659294
v 6.800000 2.896842 8.659294
v 6.800000 2.841419 8.801046
v 6.932436 2.690003 8.935172
v 6.800000 2.690003 8.935173
v 6.932436 2.483164 8.985351
v 6.800000 2.483164 8.985351
v 6.800000 1.746178 8.801046
v 6.800000 1.690756 8.659294
v 6.932436 1.690756 8.659294
v 6.932436 1.746178 8.801046
v 6.800000 1.897595 8.935173
v 6.932436 1.897595 8.935172
v 6.800000 2.104434 8.985351
v 6.932436 2.104434 8.985351
v 8.800000 2.841419 8.801046
v 8.800000 2.896842 8.659294
v 8.667564 2.896842 8.659294
v 8.667564 2.841419 8.801046
v 8.800000 2.690003 8.935173
v 8.667564 2.690003 8.935172
v 8.800000 2.483164 8.985351
v 8.667564 2.483164 8.985351
v 6.932436 0.290639 8.500780
v 8.800000 0.290545 8.332633
v 8.667564 0.290545 8.332633
v 6.932436 0.290545 8.332633
vn 1.0000 -0.0000 -0.0000
vn -0.0000 1.0000 0.0001
vn -0.0000 0.9914 0.1306
vn -1.0000 -0.0000 -0.0000
vn -0.0000 1.0000 -0.0000
vn -0.0000 -1.0000 0.0001
vn -0.0000 -0.9914 0.1306
vn -0.0000 -0.1305 0.9914
vn -0.0000 0.1305 0.9914
vn -0.0000 -0.0000 -1.0000
vn -0.0000 -0.8660 0.5000
vn -0.0000 -0.7071 0.7071
vn -0.0000 -0.2588 0.9659
vn -0.0000 0.9659 0.2588
vn -0.0000 0.7071 0.7071
vn -0.0000 0.5000 0.8660
vn -0.0000 1.0000 -0.0008
vn -0.0000 1.0000 -0.0015
vn -0.0000 0.0010 1.0000
vn -0.0000 -1.0000 -0.0000
vn -0.0000 -0.1187 0.9929
vn -0.0000 0.1187 0.9929
vn -0.0000 0.9828 0.1846
vn -0.0000 1.0000 0.0002
vn -0.0000 0.9827 0.1854
vn -0.0000 -1.0000 0.0007
vn -0.0000 -0.9826 0.1856
vn -0.0000 -0.8201 0.5723
vn -0.0000 -0.4631 0.8863
vn -0.0000 0.8201 0.5723
vn -0.0000 0.4631 0.8863
vn -0.0000 -1.0000 0.0006
vn -0.0000 0.0006 1.0000
vn -0.0000 -0.0006 -1.0000
vt 0.375000 1.000000
vt 0.625000 1.000000
vt 0.375000 0.250000
vt 0.625000 0.250000
vt 0.375000 0.750000
vt 0.000000 0.000000
vt 0.625000 0.750000
vt 0.000000 0.000000
vt 0.375000 0.500000
vt 0.000000 0.000000
vt 0.625000 0.500000
vt 0.000000 0.000000
vt 0.375000 0.083333
vt 0.875000 0.666667
vt 0.875000 0.583333
vt 0.000000 0.000000
vt 0.375000 0.666667
vt 0.375000 0.583333
vt 0.000000 0.000000
vt 0.000000 0.000000
vt 0.625000 0.583333
vt 0.625000 0.666667
vt 0.625000 0.500000
vt 0.539252 0.500000
vt 0.621171 0.500000
vt 0.582126 0.500000
vt 0.460748 0.500000
vt 0.375000 0.500000
vt 0.417874 0.500000
vt 0.378829 0.500000
vt 0.460748 0.583333
vt 0.375000 0.583333
vt 0.417874 0.583333
vt 0.375000 0.583333
vt 0.539252 0.666667
vt 0.625000 0.666667
vt 0.582126 0.666667
vt 0.625000 0.666667
vt 0.539252 0.750000
vt 0.625000 0.750000
vt 0.582126 0.750000
vt 0.621171 0.750000
vt 0.375000 0.750000
vt 0.460748 0.750000
vt 0.378829 0.750000
vt 0.417874 0.750000
vt 0.375000 0.666667
vt 0.460748 0.666667
vt 0.375000 0.666667
vt 0.417874 0.666667
vt 0.625000 0.583333
vt 0.539252 0.583333
vt 0.625000 0.583333
vt 0.582126 0.583333
vt 0.875000 0.583333
vt 0.875000 0.500000
vt 0.625000 0.250000
vt 0.625000 0.500000
vt 0.625000 0.666667
vt 0.625000 0.750000
vt 0.875000 0.750000
vt 0.625000 1.000000
vt 0.875000 0.666667
vt 0.625000 0.583333
vt 0.000000 0.000000
vt 0.375000 0.484012
vt 0.625000 0.484012
vt 0.375000 0.765988
vt 0.625000 0.765988
vt 0.640988 0.583333
vt 0.640988 0.666667
vt 0.000000 0.000000
vt 0.625000 0.484012
vt 0.640988 0.500000
vt 0.640988 0.750000
vt 0.625000 0.765988
vt 0.640988 0.583333
vt 0.640988 0.666667
vt 0.375000 1.000000
vt 0.125000 0.750000
vt 0.375000 0.250000
vt 0.125000 0.500000
vt 0.000000 0.000000
vt 0.375000 0.750000
vt 0.375000 0.500000
vt 0.000000 0.000000
vt 0.125000 0.583333
vt 0.000000 0.000000
vt 0.125000 0.666667
vt 0.000000 0.000000
vt 0.375000 0.666667
vt 0.375000 0.583333
vt 0.000000 0.000000
vt 0.000000 0.000000
vt 0.375000 0.484012
vt 0.359012 0.500000
vt 0.359012 0.750000
vt 0.375000 0.765988
vt 0.000000 0.000000
vt 0.359012 0.583333
vt 0.359012 0.666667
vt 0.375000 0.375000
vt 0.000000 0.000000
vt 0.375000 0.500000
vt 0.000000 0.000000
vt 0.375000 0.750000
vt 0.359012 0.750000
vt 0.375000 0.765988
vt 0.000000 0.000000
vt 0.625000 0.500000
vt 0.000000 0.000000
vt 0.625000 0.583333
vt 0.375000 0.583333
vt 0.375000 0.583333
vt 0.375000 0.500000
vt 0.378829 0.500000
vt 0.417874 0.583333
vt 0.417874 0.500000
vt 0.460748 0.583333
vt 0.460748 0.500000
vt 0.625000 0.666667
vt 0.625000 0.666667
vt 0.625000 0.750000
vt 0.621171 0.750000
vt 0.582126 0.666667
vt 0.582126 0.750000
vt 0.539252 0.666667
vt 0.539252 0.750000
vt 0.378829 0.750000
vt 0.375000 0.750000
vt 0.375000 0.666667
vt 0.375000 0.666667
vt 0.417874 0.750000
vt 0.417874 0.666667
vt 0.460748 0.750000
vt 0.460748 0.666667
vt 0.621171 0.500000
vt 0.625000 0.500000
vt 0.625000 0.583333
vt 0.625000 0.583333
vt 0.582126 0.500000
vt 0.582126 0.583333
vt 0.539252 0.500000
vt 0.539252 0.583333
vt 0.375000 0.666667
vt 0.375000 0.484012
vt 0.000000 0.000000
vt 0.359012 0.500000
vt 0.000000 0.000000
vt 0.359012 0.583333
vt 0.359012 0.666667
s 1
f 57/66/1 58/67/1 8/11/1 7/9/1
f 15/21/2 16/22/2 30/36/3 45/51/3
f 59/68/4 60/69/4 2/2/4 1/1/4
f 61/70/4 15/21/4 56/64/4 66/77/4
f 60/69/4 6/7/4 53/60/4 65/76/4
f 61/70/5 12/15/5 11/14/5 62/71/5
f 20/26/1 19/25/1 111/137/1 115/141/1
f 46/52/4 25/31/4 93/119/4 118/144/4
f 6/7/4 5/5/4 37/43/4 39/45/4 40/46/4 38/44/4 33/39/4 35/41/4 36/42/4 34/40/4
f 40/46/4 39/45/4 103/129/4 107/133/4
f 13/17/6 14/18/6 26/32/7 41/47/7
f 32/38/1 30/36/1 96/122/1 95/121/1
f 21/27/1 18/24/1 117/143/1 94/120/1
f 25/31/8 46/52/9 29/35/9 42/48/8
f 45/51/4 47/53/4 114/140/4 113/139/4
f 14/19/10 7/8/10 71/86/10 75/93/10
f 17/23/1 8/11/1 85/110/1 112/138/1
f 41/47/1 43/49/1 106/132/1 105/131/1
f 23/29/1 21/27/1 94/120/1 92/118/1
f 7/9/1 22/28/1 89/115/1 71/85/1
f 19/25/1 17/23/1 112/138/1 111/137/1
f 25/31/4 27/33/4 91/117/4 93/119/4
f 39/45/4 37/43/4 104/130/4 103/129/4
f 41/47/7 26/32/7 28/34/11 43/49/11
f 43/49/11 28/34/11 27/33/12 44/50/12
f 44/50/13 27/33/13 25/31/8 42/48/8
f 8/10/10 15/20/10 86/111/10 85/109/10
f 37/43/4 5/5/4 70/84/4 104/130/4
f 24/30/1 23/29/1 92/118/1 90/116/1
f 45/51/3 30/36/3 32/38/14 47/53/14
f 47/53/15 32/38/15 31/37/16 48/54/16
f 48/54/16 31/37/16 29/35/9 46/52/9
f 7/9/1 8/11/1 17/23/1 19/25/1 20/26/1 18/24/1 21/27/1 23/29/1 24/30/1 22/28/1
f 67/78/17 55/63/5 54/61/5 65/75/17
f 64/74/5 50/56/5 49/55/5 66/77/5
f 58/67/1 4/4/1 50/57/1 64/73/1
f 62/71/1 11/14/1 55/63/1 67/78/1
f 16/22/1 62/71/1 67/78/1 52/59/1
f 8/11/1 58/67/1 64/73/1 51/58/1
f 51/58/5 64/74/5 66/77/5 56/64/5
f 52/59/18 67/78/17 65/75/17 53/60/18
f 59/68/4 1/1/4 68/79/4 77/98/4
f 15/21/2 61/70/5 62/71/5 16/22/2
f 2/2/4 60/69/4 65/76/4 54/62/4
f 12/15/4 61/70/4 66/77/4 49/55/4
f 63/72/1 14/19/1 75/93/1 78/99/1
f 5/5/4 6/7/4 60/69/4 59/68/4
f 3/3/1 4/4/1 58/67/1 57/66/1
f 57/65/19 63/72/19 78/99/19 76/94/19
f 3/3/1 57/66/1 76/95/1 69/81/1
f 69/82/20 76/96/20 78/100/20 72/87/20
f 73/89/20 79/101/20 77/97/20 68/80/20
f 79/101/1 74/91/1 119/145/1 122/151/1
f 76/95/1 71/85/1 82/104/1 120/146/1
f 5/5/4 59/68/4 77/98/4 70/84/4
f 57/66/1 7/9/1 71/85/1 76/95/1
f 79/101/1 73/89/1 10/13/1 80/102/1
f 74/91/1 79/101/1 80/102/1 13/17/1
f 63/72/4 9/12/4 72/88/4 78/99/4
f 110/136/21 101/127/22 102/128/22 109/135/21
f 52/59/18 53/60/18 97/123/23 96/122/23
f 85/110/24 86/112/24 113/139/25 112/138/25
f 94/120/21 117/143/22 118/144/22 93/119/21
f 70/84/26 74/91/26 105/131/27 104/130/27
f 75/92/26 71/85/26 89/115/27 88/114/27
f 88/114/27 89/115/27 90/116/28 87/113/28
f 87/113/28 90/116/28 92/118/29 91/117/29
f 91/117/29 92/118/29 94/120/21 93/119/21
f 96/122/23 97/123/23 98/124/30 95/121/30
f 95/121/30 98/124/30 100/126/31 99/125/31
f 99/125/31 100/126/31 102/128/22 101/127/22
f 104/130/27 105/131/27 106/132/28 103/129/28
f 103/129/28 106/132/28 108/134/29 107/133/29
f 107/133/29 108/134/29 110/136/21 109/135/21
f 112/138/25 113/139/25 114/140/30 111/137/30
f 111/137/30 114/140/30 116/142/31 115/141/31
f 115/141/31 116/142/31 118/144/22 117/143/22
f 43/49/1 44/50/1 108/134/1 106/132/1
f 15/21/4 45/51/4 113/139/4 86/112/4
f 34/40/4 36/42/4 98/124/4 97/123/4
f 47/53/4 48/54/4 116/142/4 114/140/4
f 26/32/4 14/18/4 75/92/4 88/114/4
f 28/34/4 26/32/4 88/114/4 87/113/4
f 38/44/4 40/46/4 107/133/4 109/135/4
f 42/48/1 29/35/1 101/127/1 110/136/1
f 31/37/1 32/38/1 95/121/1 99/125/1
f 18/24/1 20/26/1 115/141/1 117/143/1
f 44/50/1 42/48/1 110/136/1 108/134/1
f 13/17/1 41/47/1 105/131/1 74/91/1
f 36/42/4 35/41/4 100/126/4 98/124/4
f 48/54/4 46/52/4 118/144/4 116/142/4
f 22/28/1 24/30/1 90/116/1 89/115/1
f 30/36/1 16/22/1 52/59/1 96/122/1
f 6/7/4 34/40/4 97/123/4 53/60/4
f 29/35/1 31/37/1 99/125/1 101/127/1
f 27/33/4 28/34/4 87/113/4 91/117/4
f 33/39/4 38/44/4 109/135/4 102/128/4
f 5/6/10 13/16/10 74/90/10 70/83/10
f 35/41/4 33/39/4 102/128/4 100/126/4
f 13/17/6 80/102/20 63/72/20 14/19/6
f 80/102/20 10/13/20 9/12/20 63/72/20
f 81/103/32 121/149/32 120/147/32 82/105/32
f 84/107/32 122/151/32 119/145/32 83/106/32
f 71/86/33 75/93/33 81/103/33 82/105/33
f 77/97/34 79/101/34 122/151/34 84/107/34
f 74/91/33 70/84/33 83/106/33 119/145/33
f 70/84/4 77/98/4 84/108/4 83/106/4
f 75/93/4 78/99/4 121/149/4 81/103/4
f 78/100/34 76/96/34 120/148/34 121/150/34
