# Blender 3.5.1
# www.blender.org
mtllib Conveyor Belt.mtl
o Conveyor_Belt_Mid_Portion
v 6.800000 1.893783 6.500000
v 6.800000 2.693815 6.500000
v 8.800000 1.893783 6.500000
v 8.800000 2.693815 6.500000
v 8.800000 1.893783 2.500000
v 8.800000 2.693815 2.500000
v 6.800000 1.893783 2.500000
v 6.800000 2.693815 2.500000
v 6.932436 1.893783 6.500000
v 8.667563 1.893783 6.500000
v 8.667563 2.693815 6.500000
v 6.932436 2.693815 6.500000
v 8.667564 2.693815 2.500000
v 6.932436 2.693815 2.500000
v 8.667564 1.893783 2.500000
v 6.932436 1.893783 2.500000
v 8.800000 2.896357 2.500000
v 8.800000 2.896357 6.500000
v 8.667563 1.690648 6.500000
v 8.800000 1.690648 6.500000
v 6.932436 2.896357 6.500000
v 6.800000 2.896357 6.500000
v 6.800000 1.690752 2.500000
v 6.800000 1.690648 6.500000
v 8.800000 1.690752 2.500000
v 6.800000 2.896357 2.500000
v 6.932436 2.896357 2.500000
v 6.932436 1.690752 2.500000
v 6.932436 1.690648 6.500000
v 8.667563 2.896357 6.500000
v 8.667564 2.896357 2.500000
v 8.667564 1.690752 2.500000
v 8.800000 2.693815 6.259909
v 6.800000 1.893783 6.259909
v 8.800000 1.893783 6.259909
v 6.800000 2.693815 6.259909
v 8.667563 2.693815 6.259909
v 6.932436 2.693815 6.259909
v 8.667563 1.893783 6.259909
v 6.932436 1.893783 6.259909
v 8.800000 2.896357 6.259909
v 6.800000 1.690752 6.259909
v 8.800000 1.690752 6.259909
v 6.800000 2.896357 6.259909
v 8.667563 2.896357 6.259909
v 6.932436 2.896357 6.259909
v 8.667563 1.690752 6.259909
v 6.932436 1.690752 6.259909
v 8.667563 0.290751 6.500000
v 8.800000 0.290751 6.500000
v 6.800000 0.290751 6.259909
v 6.800000 0.290751 6.500000
v 6.932436 0.290751 6.500000
v 8.800000 0.290751 6.259909
v 8.667563 0.290751 6.259909
v 6.932436 0.290751 6.259909
v 6.800000 1.893783 -1.500000
v 6.800000 2.693815 -1.500000
v 8.800000 1.893783 -1.500000
v 8.800000 2.693815 -1.500000
v 6.932436 1.893783 -1.500000
v 8.667564 1.893783 -1.500000
v 8.667564 2.693815 -1.500000
v 6.932436 2.693815 -1.500000
v 8.800000 2.896357 -1.500000
v 8.667564 1.690648 -1.500000
v 8.800000 1.690648 -1.500000
v 6.932436 2.896357 -1.500000
v 6.800000 2.896357 -1.500000
v 6.800000 1.690648 -1.500000
v 6.932436 1.690648 -1.500000
v 8.667564 2.896357 -1.500000
v 8.800000 2.693815 -1.259909
v 6.800000 1.893783 -1.259909
v 8.800000 1.893783 -1.259909
v 6.800000 2.693815 -1.259909
v 8.667564 2.693815 -1.259909
v 6.932436 2.693815 -1.259909
v 8.667564 1.893783 -1.259909
v 6.932436 1.893783 -1.259909
v 8.800000 2.896357 -1.259909
v 6.800000 1.690752 -1.259909
v 8.800000 1.690752 -1.259909
v 6.800000 2.896357 -1.259909
v 8.667564 2.896357 -1.259909
v 6.932436 2.896357 -1.259909
v 8.667564 1.690752 -1.259909
v 6.932436 1.690752 -1.259909
v 8.667564 0.290751 -1.500000
v 8.800000 0.290751 -1.500000
v 6.800000 0.290751 -1.259909
v 6.800000 0.290751 -1.500000
v 6.932436 0.290751 -1.500000
v 8.800000 0.290751 -1.259909
v 8.667564 0.290751 -1.259909
v 6.932436 0.290751 -1.259909
vn 1.0000 -0.0000 -0.0000
vn -0.0000 -0.0000 1.0000
vn -1.0000 -0.0000 -0.0000
vn -0.0000 1.0000 -0.0000
vn -0.0000 -0.0000 -1.0000
vn -0.0000 -1.0000 -0.0000
vt 0.375000 0.750000
vt 0.625000 0.750000
vt 0.375000 0.500000
vt 0.625000 0.500000
vt 0.000000 0.000000
vt 0.375000 0.375000
vt 0.000000 0.000000
vt 0.625000 0.375000
vt 0.000000 0.000000
vt 0.375000 0.875000
vt 0.000000 0.000000
vt 0.625000 0.875000
vt 0.375000 0.666667
vt 0.375000 0.583333
vt 0.625000 0.583333
vt 0.625000 0.666667
vt 0.000000 0.000000
vt 0.750000 0.583333
vt 0.000000 0.000000
vt 0.750000 0.666667
vt 0.000000 0.000000
vt 0.250000 0.583333
vt 0.000000 0.000000
vt 0.250000 0.666667
vt 0.000000 0.000000
vt 0.750000 0.500000
vt 0.625000 0.375000
vt 0.625000 0.500000
vt 0.375000 0.583333
vt 0.375000 0.500000
vt 0.625000 0.666667
vt 0.625000 0.750000
vt 0.000000 0.000000
vt 0.375000 0.875000
vt 0.250000 0.750000
vt 0.375000 0.750000
vt 0.000000 0.000000
vt 0.375000 0.375000
vt 0.250000 0.500000
vt 0.000000 0.000000
vt 0.750000 0.750000
vt 0.625000 0.875000
vt 0.000000 0.000000
vt 0.750000 0.666667
vt 0.000000 0.000000
vt 0.250000 0.666667
vt 0.375000 0.666667
vt 0.625000 0.583333
vt 0.000000 0.000000
vt 0.750000 0.583333
vt 0.000000 0.000000
vt 0.250000 0.583333
vt 0.625000 0.492497
vt 0.375000 0.757503
vt 0.375000 0.492497
vt 0.625000 0.757503
vt 0.632503 0.583333
vt 0.632503 0.666667
vt 0.367497 0.583333
vt 0.367497 0.666667
vt 0.625000 0.492497
vt 0.632503 0.500000
vt 0.367497 0.750000
vt 0.375000 0.757503
vt 0.367497 0.500000
vt 0.375000 0.492497
vt 0.625000 0.757503
vt 0.632503 0.750000
vt 0.632503 0.583333
vt 0.632503 0.666667
vt 0.367497 0.583333
vt 0.367497 0.666667
vt 0.375000 0.583333
vt 0.375000 0.500000
vt 0.367497 0.750000
vt 0.375000 0.757503
vt 0.375000 0.750000
vt 0.375000 0.666667
vt 0.367497 0.500000
vt 0.375000 0.492497
vt 0.367497 0.583333
vt 0.367497 0.666667
vt 0.375000 0.750000
vt 0.625000 0.750000
vt 0.375000 0.500000
vt 0.625000 0.500000
vt 0.375000 0.666667
vt 0.375000 0.583333
vt 0.625000 0.583333
vt 0.625000 0.666667
vt 0.625000 0.500000
vt 0.375000 0.583333
vt 0.375000 0.500000
vt 0.625000 0.666667
vt 0.625000 0.750000
vt 0.375000 0.750000
vt 0.375000 0.666667
vt 0.625000 0.583333
vt 0.625000 0.492497
vt 0.375000 0.757503
vt 0.375000 0.492497
vt 0.625000 0.757503
vt 0.632503 0.583333
vt 0.632503 0.666667
vt 0.367497 0.583333
vt 0.367497 0.666667
vt 0.625000 0.492497
vt 0.632503 0.500000
vt 0.367497 0.750000
vt 0.375000 0.757503
vt 0.367497 0.500000
vt 0.375000 0.492497
vt 0.625000 0.757503
vt 0.632503 0.750000
vt 0.632503 0.583333
vt 0.632503 0.666667
vt 0.367497 0.583333
vt 0.367497 0.666667
vt 0.375000 0.583333
vt 0.375000 0.500000
vt 0.367497 0.750000
vt 0.375000 0.757503
vt 0.375000 0.750000
vt 0.375000 0.666667
vt 0.367497 0.500000
vt 0.375000 0.492497
vt 0.367497 0.583333
vt 0.367497 0.666667
s 1
f 35/55/1 33/53/1 4/4/1 3/3/1
f 9/13/2 12/16/2 2/2/2 1/1/2
f 37/57/3 11/15/3 30/48/3 45/69/3
f 34/54/3 7/10/3 23/34/3 42/64/3
f 34/54/3 36/56/3 8/12/3 7/10/3
f 37/57/4 13/18/4 14/20/4 38/58/4
f 15/21/5 5/5/5 25/37/5 32/51/5
f 39/59/6 10/14/6 9/13/6 40/60/6
f 3/3/2 4/4/2 11/15/2 10/14/2
f 10/14/2 11/15/2 12/16/2 9/13/2
f 29/47/2 24/36/2 52/77/2 53/78/2
f 46/70/4 27/44/4 26/41/4 44/68/4
f 41/62/4 17/26/4 31/50/4 45/69/4
f 47/71/5 43/65/5 54/79/5 55/81/5
f 35/55/1 3/3/1 20/30/1 43/66/1
f 38/58/1 14/20/1 27/44/1 46/70/1
f 11/15/2 4/4/2 18/28/2 30/48/2
f 36/56/3 2/2/3 22/32/3 44/67/3
f 39/59/3 15/22/3 32/52/3 47/71/3
f 33/53/1 6/8/1 17/27/1 41/61/1
f 14/19/5 8/11/5 26/40/5 27/43/5
f 40/60/1 9/13/1 29/47/1 48/72/1
f 6/7/5 13/17/5 31/49/5 17/25/5
f 7/9/5 16/23/5 28/45/5 23/33/5
f 2/2/2 12/16/2 21/31/2 22/32/2
f 16/24/1 40/60/1 48/72/1 28/46/1
f 4/4/1 33/53/1 41/61/1 18/28/1
f 10/14/3 39/59/3 47/71/3 19/29/3
f 8/12/3 36/56/3 44/67/3 26/42/3
f 12/16/1 38/58/1 46/70/1 21/31/1
f 5/6/1 35/55/1 43/66/1 25/38/1
f 25/39/6 43/65/6 47/71/6 32/52/6
f 18/28/4 41/62/4 45/69/4 30/48/4
f 21/31/4 46/70/4 44/68/4 22/32/4
f 28/46/6 48/72/6 42/63/6 23/35/6
f 15/22/6 39/59/6 40/60/6 16/24/6
f 11/15/4 37/57/4 38/58/4 12/16/4
f 1/1/3 2/2/3 36/56/3 34/54/3
f 1/1/3 34/54/3 42/64/3 24/36/3
f 13/18/3 37/57/3 45/69/3 31/50/3
f 5/6/1 6/8/1 33/53/1 35/55/1
f 56/82/6 53/78/6 52/77/6 51/75/6
f 54/79/6 50/74/6 49/73/6 55/81/6
f 42/63/5 48/72/5 56/82/5 51/75/5
f 19/29/3 47/71/3 55/81/3 49/73/3
f 43/66/1 20/30/1 50/74/1 54/80/1
f 48/72/1 29/47/1 53/78/1 56/82/1
f 24/36/3 42/64/3 51/76/3 52/77/3
f 20/30/2 19/29/2 49/73/2 50/74/2
f 3/3/2 10/14/2 19/29/2 20/30/2
f 9/13/2 1/1/2 24/36/2 29/47/2
f 75/101/1 59/85/1 60/86/1 73/99/1
f 61/87/5 57/83/5 58/84/5 64/90/5
f 77/103/3 85/115/3 72/98/3 63/89/3
f 74/100/3 82/110/3 23/34/3 7/10/3
f 74/100/3 7/10/3 8/12/3 76/102/3
f 77/103/4 78/104/4 14/20/4 13/18/4
f 79/105/6 80/106/6 61/87/6 62/88/6
f 59/85/5 62/88/5 63/89/5 60/86/5
f 62/88/5 61/87/5 64/90/5 63/89/5
f 71/97/5 93/124/5 92/123/5 70/96/5
f 86/116/4 84/114/4 26/41/4 27/44/4
f 81/108/4 85/115/4 31/50/4 17/26/4
f 87/117/2 95/127/2 94/125/2 83/111/2
f 75/101/1 83/112/1 67/93/1 59/85/1
f 78/104/1 86/116/1 27/44/1 14/20/1
f 63/89/5 72/98/5 65/91/5 60/86/5
f 76/102/3 84/113/3 69/95/3 58/84/3
f 79/105/3 87/117/3 32/52/3 15/22/3
f 73/99/1 81/107/1 17/27/1 6/8/1
f 80/106/1 88/118/1 71/97/1 61/87/1
f 58/84/5 69/95/5 68/94/5 64/90/5
f 16/24/1 28/46/1 88/118/1 80/106/1
f 60/86/1 65/91/1 81/107/1 73/99/1
f 62/88/3 66/92/3 87/117/3 79/105/3
f 8/12/3 26/42/3 84/113/3 76/102/3
f 64/90/1 68/94/1 86/116/1 78/104/1
f 5/6/1 25/38/1 83/112/1 75/101/1
f 25/39/6 32/52/6 87/117/6 83/111/6
f 65/91/4 72/98/4 85/115/4 81/108/4
f 68/94/4 69/95/4 84/114/4 86/116/4
f 28/46/6 23/35/6 82/109/6 88/118/6
f 15/22/6 16/24/6 80/106/6 79/105/6
f 63/89/4 64/90/4 78/104/4 77/103/4
f 57/83/3 74/100/3 76/102/3 58/84/3
f 57/83/3 70/96/3 82/110/3 74/100/3
f 13/18/3 31/50/3 85/115/3 77/103/3
f 5/6/1 75/101/1 73/99/1 6/8/1
f 96/128/6 91/121/6 92/123/6 93/124/6
f 94/125/6 95/127/6 89/119/6 90/120/6
f 82/109/2 91/121/2 96/128/2 88/118/2
f 66/92/3 89/119/3 95/127/3 87/117/3
f 83/112/1 94/126/1 90/120/1 67/93/1
f 88/118/1 96/128/1 93/124/1 71/97/1
f 70/96/3 92/123/3 91/122/3 82/110/3
f 67/93/5 90/120/5 89/119/5 66/92/5
f 59/85/5 67/93/5 66/92/5 62/88/5
f 61/87/5 71/97/5 70/96/5 57/83/5
