# Blender 3.5.1
# www.blender.org
mtllib Floor.mtl
o FloorCenter
v 9.999588 -0.256202 9.999992
v 9.999587 -0.256204 -10.000007
v -10.000401 -0.256202 9.999993
v -10.000401 -0.256204 -10.000007
v 9.999587 -0.256204 -9.200019
v -10.000401 -0.256204 -9.200019
v 9.999588 -0.256202 9.199992
v -10.000401 -0.256202 9.199990
v 9.200299 -0.256204 -10.000005
v 9.200299 -0.256202 9.999992
v -9.199661 -0.256204 -10.000007
v -9.199661 -0.256202 9.999992
v 9.999588 0.043798 10.000697
v 9.999588 0.043798 9.199992
v 9.500332 0.043798 9.500002
v 9.200299 0.043798 10.000697
v 9.999587 0.043796 -9.200019
v 9.999587 0.043796 -10.000706
v 9.200299 0.043796 -10.000706
v 9.500332 0.043796 -9.499990
v -9.199661 0.043796 -10.000706
v -9.499661 0.043796 -9.499990
v -9.499661 0.043798 9.500002
v -9.199661 0.043798 10.000697
v -10.000401 0.043796 -10.000706
v -10.000401 0.043796 -9.200019
v -10.000401 0.043798 9.199990
v -10.000401 0.043798 10.000697
v 9.350351 0.343796 -9.350021
v 9.500332 0.193811 -9.499990
v 9.350350 0.343798 9.350027
v 9.500332 0.193813 9.500002
v -9.349708 0.343796 -9.350017
v -9.499661 0.193811 -9.499990
v -9.349708 0.343798 9.350029
v -9.499661 0.193813 9.500002
vn -0.0000 1.0000 -0.0000
vn 1.0000 -0.0000 -0.0000
vn -0.0000 -0.0023 1.0000
vn -0.0000 -0.0023 -1.0000
vn -1.0000 -0.0000 -0.0000
vn -0.0000 0.7071 -0.7071
vn 0.7071 0.7071 -0.0000
vn -0.0000 0.7071 0.7071
vn -0.7072 0.7070 -0.0000
vn -0.0000 -0.0000 -1.0000
vn -0.0000 -0.0000 1.0000
vt 0.375000 0.250000
vt 0.625000 0.250000
vt 0.375000 0.500000
vt 0.625000 0.500000
vt 0.614746 0.250000
vt 0.614746 0.500000
vt 0.388066 0.250000
vt 0.388066 0.500000
vt 0.625000 0.261913
vt 0.375000 0.261913
vt 0.625000 0.486826
vt 0.375000 0.486826
vt 0.375000 0.250000
vt 0.388066 0.250000
vt 0.388066 0.261913
vt 0.375000 0.261913
vt 0.614746 0.250000
vt 0.625000 0.250000
vt 0.625000 0.261913
vt 0.614746 0.261913
vt 0.625000 0.486826
vt 0.614746 0.486826
vt 0.388066 0.486826
vt 0.375000 0.486826
vt 0.625000 0.500000
vt 0.614746 0.500000
vt 0.388066 0.500000
vt 0.375000 0.500000
vt 0.612956 0.263689
vt 0.614746 0.261913
vt 0.389855 0.263689
vt 0.388066 0.261913
vt 0.612956 0.485051
vt 0.614746 0.486826
vt 0.389855 0.485051
vt 0.388066 0.486826
s 1
usemtl WallsFloors
f 13/13/1 14/14/1 15/15/1 16/16/1
f 17/17/1 18/18/1 19/19/1 20/20/1
f 14/14/1 17/17/1 20/20/1 15/15/1
f 20/20/1 19/19/1 21/21/1 22/22/1
f 16/16/1 15/15/1 23/23/1 24/24/1
f 22/22/1 21/21/1 25/25/1 26/26/1
f 23/23/1 22/22/1 26/26/1 27/27/1
f 24/24/1 23/23/1 27/27/1 28/28/1
f 1/1/2 7/7/2 14/14/2 13/13/2
f 10/10/3 1/1/3 13/13/3 16/16/3
f 5/5/2 2/2/2 18/18/2 17/17/2
f 2/2/4 9/9/4 19/19/4 18/18/4
f 7/7/2 5/5/2 17/17/2 14/14/2
f 9/9/4 11/11/4 21/21/4 19/19/4
f 12/12/3 10/10/3 16/16/3 24/24/3
f 11/11/4 4/4/4 25/25/4 21/21/4
f 4/4/5 6/6/5 26/26/5 25/25/5
f 6/6/5 8/8/5 27/27/5 26/26/5
f 8/8/5 3/3/5 28/28/5 27/27/5
f 3/3/3 12/12/3 24/24/3 28/28/3
f 29/29/6 30/30/6 34/34/6 33/33/6
f 30/30/7 29/29/7 31/31/7 32/32/7
f 32/32/8 31/31/8 35/35/8 36/36/8
f 33/33/9 34/34/9 36/36/9 35/35/9
f 31/31/1 29/29/1 33/33/1 35/35/1
f 15/15/2 20/20/2 30/30/2 32/32/2
f 20/20/10 22/22/10 34/34/10 30/30/10
f 22/22/5 23/23/5 36/36/5 34/34/5
f 23/23/11 15/15/11 32/32/11 36/36/11
